<svg width="455" height="455" viewBox="0 0 455 455" fill="none" xmlns="http://www.w3.org/2000/svg">
<circle cx="227.5" cy="227.5" r="227" fill="#C4A7E7" stroke="#26233A"/>
<mask id="path-2-inside-1_10_113" fill="white">
<path d="M131.133 22.4639C78.1123 47.427 36.3443 92.3504 15.5156 147.547L20.4932 176.415L25.46 201.75L45.9238 221.715L45.9629 221.811L58.3359 252H72.2539L58.5576 284.463L71.9316 307.247L71.96 307.296L71.9775 307.351L79.4375 331.223L96.8369 347.131L96.9473 347.231L111.456 404.268L127.351 423.64L145.954 438.159L134.321 416.289L134.77 416.057L147 409.696V404.196L147.27 404.057L172 391.196V376.16L198.604 365.618L207.028 341.833L207.044 341.79L222.312 315.191L203.758 304.938L203.707 304.909L181.887 285.072L163.5 291.712V265.857L141.839 258.474L141.706 258.428L141.616 258.32L126.766 240.5H96.417L96.3379 240.473L78.8379 234.473L78.7939 234.458L78.7539 234.436L67 227.792V207.788L57.749 202.433L57.5 202.288V181.559L48.4102 182.568L52.0059 158.427L52.083 157.903L52.6006 158.011L69.6006 161.511L69.8936 161.57L69.9785 161.856L75.9043 181.61L89.6104 186.337L94.0078 161.911L94.0283 161.8L94.0938 161.708L117 129.838V117.615L142.197 110.931L142.4 111.2L149.524 120.699L162.916 105H147.6L172.04 91.1846L175.945 64.332L163.831 59.9707L163.71 59.9268L163.625 59.8311L156.489 51.7432L134.969 74.7656L122.811 59.4355L141.673 43.1221L141.813 43H156.339L171.696 31.9609L156.455 18.625L134.738 32.7666L131.133 22.4639Z"/>
<path d="M327.448 104.756L321.482 126.632L321.473 126.666L321.459 126.699L316.382 138.377L316.205 138.456L306.5 142.823V153.5H326.78L342.829 135.946L368 141.869V128.584L391.332 157.496L395.092 147.16L403.5 142.214V120.324L431.932 147.703L413.177 154.292L425.329 181.635L395.867 177.062L391.983 191.629L391.781 192.384L355.906 162.571L331.681 171.966L331.594 172H306.352L297.449 196.729L297.414 196.78L276.551 227.577L288.928 265.201L308.646 280.976L343.377 276.446L346.891 290.5H369.193L361.021 315.019L365.984 334.376L366.034 334.568L365.938 334.742L340.513 380.605L343.437 409.36L362.79 404.038L388.223 387.084L388.226 387.089C428.88 346.146 454 289.757 454 227.5C454 152.085 417.142 85.2789 360.458 44.1113L327.788 64.1035L347.194 84.5039L327.448 104.756Z"/>
<path d="M289.448 100.45L308.434 110.893L320.326 100.427L302 75.5215V91.7617L289.448 100.45Z"/>
<path d="M204.593 50.9316L223.035 73.2568L237.204 59.0889L268.936 43.2227L264.073 18.4248L204.074 6.52344L189.453 14.0703L214.138 31.8428L204.593 50.9316Z"/>
</mask>
<path d="M131.133 22.4639C78.1123 47.427 36.3443 92.3504 15.5156 147.547L20.4932 176.415L25.46 201.75L45.9238 221.715L45.9629 221.811L58.3359 252H72.2539L58.5576 284.463L71.9316 307.247L71.96 307.296L71.9775 307.351L79.4375 331.223L96.8369 347.131L96.9473 347.231L111.456 404.268L127.351 423.64L145.954 438.159L134.321 416.289L134.77 416.057L147 409.696V404.196L147.27 404.057L172 391.196V376.16L198.604 365.618L207.028 341.833L207.044 341.79L222.312 315.191L203.758 304.938L203.707 304.909L181.887 285.072L163.5 291.712V265.857L141.839 258.474L141.706 258.428L141.616 258.32L126.766 240.5H96.417L96.3379 240.473L78.8379 234.473L78.7939 234.458L78.7539 234.436L67 227.792V207.788L57.749 202.433L57.5 202.288V181.559L48.4102 182.568L52.0059 158.427L52.083 157.903L52.6006 158.011L69.6006 161.511L69.8936 161.57L69.9785 161.856L75.9043 181.61L89.6104 186.337L94.0078 161.911L94.0283 161.8L94.0938 161.708L117 129.838V117.615L142.197 110.931L142.4 111.2L149.524 120.699L162.916 105H147.6L172.04 91.1846L175.945 64.332L163.831 59.9707L163.71 59.9268L163.625 59.8311L156.489 51.7432L134.969 74.7656L122.811 59.4355L141.673 43.1221L141.813 43H156.339L171.696 31.9609L156.455 18.625L134.738 32.7666L131.133 22.4639Z" fill="#26233A"/>
<path d="M327.448 104.756L321.482 126.632L321.473 126.666L321.459 126.699L316.382 138.377L316.205 138.456L306.5 142.823V153.5H326.78L342.829 135.946L368 141.869V128.584L391.332 157.496L395.092 147.16L403.5 142.214V120.324L431.932 147.703L413.177 154.292L425.329 181.635L395.867 177.062L391.983 191.629L391.781 192.384L355.906 162.571L331.681 171.966L331.594 172H306.352L297.449 196.729L297.414 196.78L276.551 227.577L288.928 265.201L308.646 280.976L343.377 276.446L346.891 290.5H369.193L361.021 315.019L365.984 334.376L366.034 334.568L365.938 334.742L340.513 380.605L343.437 409.36L362.79 404.038L388.223 387.084L388.226 387.089C428.88 346.146 454 289.757 454 227.5C454 152.085 417.142 85.2789 360.458 44.1113L327.788 64.1035L347.194 84.5039L327.448 104.756Z" fill="#26233A"/>
<path d="M289.448 100.45L308.434 110.893L320.326 100.427L302 75.5215V91.7617L289.448 100.45Z" fill="#26233A"/>
<path d="M204.593 50.9316L223.035 73.2568L237.204 59.0889L268.936 43.2227L264.073 18.4248L204.074 6.52344L189.453 14.0703L214.138 31.8428L204.593 50.9316Z" fill="#26233A"/>
<path d="M131.133 22.4639C78.1123 47.427 36.3443 92.3504 15.5156 147.547L20.4932 176.415L25.46 201.75L45.9238 221.715L45.9629 221.811L58.3359 252H72.2539L58.5576 284.463L71.9316 307.247L71.96 307.296L71.9775 307.351L79.4375 331.223L96.8369 347.131L96.9473 347.231L111.456 404.268L127.351 423.64L145.954 438.159L134.321 416.289L134.77 416.057L147 409.696V404.196L147.27 404.057L172 391.196V376.16L198.604 365.618L207.028 341.833L207.044 341.79L222.312 315.191L203.758 304.938L203.707 304.909L181.887 285.072L163.5 291.712V265.857L141.839 258.474L141.706 258.428L141.616 258.32L126.766 240.5H96.417L96.3379 240.473L78.8379 234.473L78.7939 234.458L78.7539 234.436L67 227.792V207.788L57.749 202.433L57.5 202.288V181.559L48.4102 182.568L52.0059 158.427L52.083 157.903L52.6006 158.011L69.6006 161.511L69.8936 161.57L69.9785 161.856L75.9043 181.61L89.6104 186.337L94.0078 161.911L94.0283 161.8L94.0938 161.708L117 129.838V117.615L142.197 110.931L142.4 111.2L149.524 120.699L162.916 105H147.6L172.04 91.1846L175.945 64.332L163.831 59.9707L163.71 59.9268L163.625 59.8311L156.489 51.7432L134.969 74.7656L122.811 59.4355L141.673 43.1221L141.813 43H156.339L171.696 31.9609L156.455 18.625L134.738 32.7666L131.133 22.4639Z" stroke="#26233A" stroke-width="2" mask="url(#path-2-inside-1_10_113)"/>
<path d="M327.448 104.756L321.482 126.632L321.473 126.666L321.459 126.699L316.382 138.377L316.205 138.456L306.5 142.823V153.5H326.78L342.829 135.946L368 141.869V128.584L391.332 157.496L395.092 147.16L403.5 142.214V120.324L431.932 147.703L413.177 154.292L425.329 181.635L395.867 177.062L391.983 191.629L391.781 192.384L355.906 162.571L331.681 171.966L331.594 172H306.352L297.449 196.729L297.414 196.78L276.551 227.577L288.928 265.201L308.646 280.976L343.377 276.446L346.891 290.5H369.193L361.021 315.019L365.984 334.376L366.034 334.568L365.938 334.742L340.513 380.605L343.437 409.36L362.79 404.038L388.223 387.084L388.226 387.089C428.88 346.146 454 289.757 454 227.5C454 152.085 417.142 85.2789 360.458 44.1113L327.788 64.1035L347.194 84.5039L327.448 104.756Z" stroke="#26233A" stroke-width="2" mask="url(#path-2-inside-1_10_113)"/>
<path d="M289.448 100.45L308.434 110.893L320.326 100.427L302 75.5215V91.7617L289.448 100.45Z" stroke="#26233A" stroke-width="2" mask="url(#path-2-inside-1_10_113)"/>
<path d="M204.593 50.9316L223.035 73.2568L237.204 59.0889L268.936 43.2227L264.073 18.4248L204.074 6.52344L189.453 14.0703L214.138 31.8428L204.593 50.9316Z" stroke="#26233A" stroke-width="2" mask="url(#path-2-inside-1_10_113)"/>
<path d="M124.5 394C129.747 394 134 398.253 134 403.5C134 408.747 129.747 413 124.5 413C119.253 413 115 408.747 115 403.5C115 398.253 119.253 394 124.5 394ZM268.5 373C277.613 373 285 380.387 285 389.5C285 398.613 277.613 406 268.5 406C259.387 406 252 398.613 252 389.5C252 380.387 259.387 373 268.5 373ZM195 309C203.837 309 211 316.163 211 325C211 333.837 203.837 341 195 341C186.163 341 179 333.837 179 325C179 316.163 186.163 309 195 309ZM364 268C368.971 268 373 272.029 373 277C373 281.971 368.971 286 364 286C359.029 286 355 281.971 355 277C355 272.029 359.029 268 364 268ZM110.5 253C118.508 253 125 259.492 125 267.5C125 275.508 118.508 282 110.5 282C102.492 282 96 275.508 96 267.5C96 259.492 102.492 253 110.5 253ZM418 198C425.18 198 431 203.82 431 211C431 218.18 425.18 224 418 224C410.82 224 405 218.18 405 211C405 203.82 410.82 198 418 198ZM52 176C59.1797 176 65 181.82 65 189C65 196.18 59.1797 202 52 202C44.8203 202 39 196.18 39 189C39 181.82 44.8203 176 52 176ZM196 148C205.941 148 214 156.059 214 166C214 175.941 205.941 184 196 184C186.059 184 178 175.941 178 166C178 156.059 186.059 148 196 148ZM339 114C347.837 114 355 121.163 355 130C355 138.837 347.837 146 339 146C330.163 146 323 138.837 323 130C323 121.163 330.163 114 339 114ZM96 104C101.523 104 106 108.477 106 114C106 119.523 101.523 124 96 124C90.4772 124 86 119.523 86 114C86 108.477 90.4772 104 96 104ZM300.5 82C305.194 82 309 85.8056 309 90.5C309 95.1944 305.194 99 300.5 99C295.806 99 292 95.1944 292 90.5C292 85.8056 295.806 82 300.5 82ZM218 57C225.732 57 232 63.7157 232 72C232 80.2843 225.732 87 218 87C210.268 87 204 80.2843 204 72C204 63.7157 210.268 57 218 57Z" fill="#EB6F92"/>
<path d="M217.613 70.0127L301.613 89.5127L302.706 89.7666L302.004 90.2568L342.342 128.136L342.354 128.146L342.363 128.156L419.363 209.656L419.661 209.972L419.391 210.312L365.958 277.353L366.952 277.075L366.097 278.071L367.196 278.54L366.804 279.46L365.414 278.867L269.38 390.825L269.247 390.979L269.045 390.998L124.545 403.998L124.053 404.042L124.003 403.551L110.287 270.315L109.891 270.812L109.102 271.799L109.002 270.539L108.793 267.907L49.1055 191.308L48.8936 191.036L49.0723 190.741L96.5723 112.241L96.8203 111.831L97.2402 112.062L193.174 164.75L217.016 70.3779L217.136 69.9023L217.613 70.0127ZM125.734 402.887L267.799 390.105L195.538 326.201L125.734 402.887ZM111.177 269.204L124.882 402.336L194.742 325.588L111.506 268.792L111.177 269.204ZM196.992 325.601L197 325.99L196.813 325.993L268.95 389.788L364.048 278.925L196.992 325.601ZM112.133 268.009L195.59 324.955L195.978 324.846L193.025 166.893L112.133 268.009ZM194.005 165.757L196.973 324.568L363.745 277.971L273.52 218.178L197.896 316.306L197.104 315.694L272.683 217.623L205.224 172.917L205.776 172.083L273.295 216.828L341.326 128.553L301.167 90.8418L194.005 165.757ZM274.132 217.383L364.103 277.007L341.682 129.732L274.132 217.383ZM365.088 276.841L418.338 210.027L342.734 130.006L365.088 276.841ZM103.002 182.033L109.766 267.527L109.895 267.692L109.785 267.776L109.897 269.201L110.141 268.896L110.003 267.551L109.893 266.48L110.782 267.087L111.304 267.442L192.28 166.223L103.002 182.033ZM50.4043 191.347L108.65 266.096L102.014 182.208L50.4043 191.347ZM50.498 190.315L101.934 181.207L96.624 114.086L50.498 190.315ZM102.923 181.031L192.016 165.255L97.5703 113.384L102.923 181.031ZM194.312 164.321L300.293 90.2334L217.863 71.0977L194.312 164.321Z" fill="#EB6F92"/>
<path d="M217.613 70.0127L217.726 69.5256L217.726 69.5255L217.613 70.0127ZM301.613 89.5127L301.726 89.0257L301.726 89.0256L301.613 89.5127ZM302.706 89.7666L302.992 90.1766L303.913 89.5337L302.819 89.2796L302.706 89.7666ZM302.004 90.2568L301.718 89.8469L301.213 90.1996L301.662 90.6213L302.004 90.2568ZM342.342 128.136L342 128.5L342.01 128.51L342.022 128.52L342.342 128.136ZM342.354 128.146L342.723 127.809L342.7 127.784L342.674 127.761L342.354 128.146ZM342.363 128.156L341.993 128.493L342 128.5L342.363 128.156ZM419.363 209.656L419.727 209.313L419.727 209.313L419.363 209.656ZM419.661 209.972L420.052 210.283L420.322 209.944L420.025 209.628L419.661 209.972ZM419.391 210.312L419.782 210.623L419.782 210.623L419.391 210.312ZM365.958 277.353L365.567 277.041L364.604 278.249L366.092 277.834L365.958 277.353ZM366.952 277.075L367.331 277.401L368.405 276.151L366.818 276.594L366.952 277.075ZM366.097 278.071L365.717 277.746L365.273 278.263L365.901 278.531L366.097 278.071ZM367.196 278.54L367.656 278.736L367.852 278.276L367.392 278.08L367.196 278.54ZM366.804 279.46L366.608 279.92L367.067 280.116L367.264 279.656L366.804 279.46ZM365.414 278.867L365.61 278.407L365.273 278.263L365.035 278.542L365.414 278.867ZM269.38 390.825L269.759 391.151L269.759 391.151L269.38 390.825ZM269.247 390.979L269.293 391.477L269.494 391.459L269.626 391.306L269.247 390.979ZM269.045 390.998L269.09 391.496L269.091 391.496L269.045 390.998ZM124.545 403.998L124.589 404.496L124.59 404.496L124.545 403.998ZM124.053 404.042L123.555 404.092L123.605 404.584L124.097 404.54L124.053 404.042ZM124.003 403.551L124.5 403.5L124.5 403.5L124.003 403.551ZM110.287 270.315L110.784 270.264L110.659 269.047L109.896 270.004L110.287 270.315ZM109.891 270.812L110.281 271.125L110.282 271.124L109.891 270.812ZM109.102 271.799L108.603 271.838L108.703 273.098L109.492 272.111L109.102 271.799ZM109.002 270.539L109.5 270.5L109.5 270.499L109.002 270.539ZM108.793 267.907L109.291 267.868L109.28 267.718L109.187 267.6L108.793 267.907ZM49.1055 191.308L49.4999 191L49.4996 191L49.1055 191.308ZM48.8936 191.036L48.4659 190.777L48.2872 191.072L48.4994 191.344L48.8936 191.036ZM49.0723 190.741L49.4999 191L49.5 191L49.0723 190.741ZM96.5723 112.241L97 112.5L97.0001 112.5L96.5723 112.241ZM96.8203 111.831L97.0609 111.393L96.6406 111.162L96.3925 111.572L96.8203 111.831ZM97.2402 112.062L97.4809 111.623L97.4808 111.623L97.2402 112.062ZM193.174 164.75L192.933 165.188L193.5 165.5L193.659 164.872L193.174 164.75ZM217.016 70.3779L217.5 70.5004L217.5 70.5004L217.016 70.3779ZM217.136 69.9023L217.248 69.4152L216.771 69.3049L216.651 69.7799L217.136 69.9023ZM125.734 402.887L125.365 402.55L124.5 403.5L125.779 403.385L125.734 402.887ZM267.799 390.105L267.844 390.603L268.999 390.499L268.13 389.731L267.799 390.105ZM195.538 326.201L195.869 325.827L195.5 325.5L195.168 325.865L195.538 326.201ZM111.177 269.204L110.786 268.892L110.658 269.052L110.679 269.255L111.177 269.204ZM124.882 402.336L124.384 402.387L124.499 403.499L125.252 402.673L124.882 402.336ZM194.742 325.588L195.112 325.924L195.499 325.499L195.024 325.175L194.742 325.588ZM111.506 268.792L111.788 268.379L111.405 268.118L111.115 268.48L111.506 268.792ZM196.992 325.601L196.858 325.119L196.485 325.223L196.492 325.611L196.992 325.601ZM197 325.99L197.008 326.49L197.51 326.482L197.5 325.98L197 325.99ZM196.813 325.993L196.806 325.493L195.516 325.513L196.482 326.368L196.813 325.993ZM268.95 389.788L268.619 390.163L268.999 390.499L269.33 390.114L268.95 389.788ZM364.048 278.925L364.427 279.25L365.5 278L363.913 278.443L364.048 278.925ZM112.133 268.009L111.742 267.696L111.405 268.118L111.851 268.422L112.133 268.009ZM195.59 324.955L195.308 325.368L195.501 325.5L195.726 325.436L195.59 324.955ZM195.978 324.846L196.113 325.327L196.485 325.222L196.477 324.836L195.978 324.846ZM193.025 166.893L193.525 166.883L193.499 165.5L192.635 166.58L193.025 166.893ZM194.005 165.757L193.718 165.347L193.5 165.5L193.505 165.766L194.005 165.757ZM196.973 324.568L196.473 324.578L196.485 325.224L197.107 325.05L196.973 324.568ZM363.745 277.971L363.88 278.452L364.933 278.158L364.021 277.554L363.745 277.971ZM273.52 218.178L273.796 217.761L273.408 217.504L273.123 217.873L273.52 218.178ZM197.896 316.306L197.591 316.702L197.987 317.007L198.293 316.611L197.896 316.306ZM197.104 315.694L196.707 315.389L196.402 315.785L196.798 316.09L197.104 315.694ZM272.683 217.623L273.079 217.928L273.406 217.503L272.959 217.206L272.683 217.623ZM205.224 172.917L204.807 172.641L204.531 173.058L204.947 173.334L205.224 172.917ZM205.776 172.083L206.053 171.666L205.636 171.39L205.36 171.807L205.776 172.083ZM273.295 216.828L273.019 217.245L273.407 217.502L273.691 217.133L273.295 216.828ZM341.326 128.553L341.722 128.858L341.999 128.499L341.668 128.188L341.326 128.553ZM301.167 90.8418L301.509 90.4773L301.213 90.1994L300.881 90.432L301.167 90.8418ZM274.132 217.383L273.736 217.078L273.408 217.503L273.856 217.8L274.132 217.383ZM364.103 277.007L363.826 277.424L364.767 278.047L364.597 276.932L364.103 277.007ZM341.682 129.732L342.176 129.657L342 128.5L341.286 129.427L341.682 129.732ZM365.088 276.841L364.594 276.916L364.766 278.047L365.479 277.152L365.088 276.841ZM418.338 210.027L418.729 210.339L418.999 210L418.701 209.684L418.338 210.027ZM342.734 130.006L343.098 129.662L341.999 128.5L342.24 130.081L342.734 130.006ZM103.002 182.033L102.915 181.541L102.468 181.62L102.504 182.073L103.002 182.033ZM109.766 267.527L109.267 267.567L109.279 267.717L109.372 267.835L109.766 267.527ZM109.895 267.692L110.199 268.089L110.599 267.782L110.289 267.385L109.895 267.692ZM109.785 267.776L109.481 267.38L109.265 267.545L109.287 267.816L109.785 267.776ZM109.897 269.201L109.399 269.24L109.499 270.506L110.289 269.512L109.897 269.201ZM110.141 268.896L110.532 269.207L110.659 269.047L110.638 268.845L110.141 268.896ZM110.003 267.551L110.5 267.5L110.5 267.5L110.003 267.551ZM109.893 266.48L110.174 266.067L109.285 265.461L109.395 266.532L109.893 266.48ZM110.782 267.087L110.501 267.5L110.501 267.5L110.782 267.087ZM111.304 267.442L111.022 267.856L111.405 268.116L111.694 267.755L111.304 267.442ZM192.28 166.223L192.671 166.535L193.5 165.499L192.193 165.73L192.28 166.223ZM50.4043 191.347L50.3171 190.854L49.4996 190.999L50.0099 191.654L50.4043 191.347ZM108.65 266.096L108.256 266.403L109.28 267.718L109.149 266.056L108.65 266.096ZM102.014 182.208L102.512 182.169L102.469 181.62L101.926 181.716L102.014 182.208ZM50.498 190.315L50.0703 190.057L49.4994 191L50.5852 190.808L50.498 190.315ZM101.934 181.207L102.021 181.699L102.468 181.62L102.432 181.168L101.934 181.207ZM96.624 114.086L97.1225 114.047L97 112.499L96.1962 113.827L96.624 114.086ZM102.923 181.031L102.424 181.071L102.468 181.62L103.01 181.524L102.923 181.031ZM192.016 165.255L192.103 165.747L193.5 165.5L192.256 164.817L192.016 165.255ZM97.5703 113.384L97.811 112.946L96.9988 112.499L97.0719 113.423L97.5703 113.384ZM194.312 164.321L193.828 164.199L193.499 165.5L194.599 164.731L194.312 164.321ZM300.293 90.2334L300.579 90.6432L301.499 90.0001L300.406 89.7464L300.293 90.2334ZM217.863 71.0977L217.976 70.6106L217.499 70.4997L217.379 70.9752L217.863 71.0977ZM217.613 70.0127L217.5 70.4997L301.5 89.9997L301.613 89.5127L301.726 89.0256L217.726 69.5256L217.613 70.0127ZM301.613 89.5127L301.5 89.9997L302.593 90.2536L302.706 89.7666L302.819 89.2796L301.726 89.0257L301.613 89.5127ZM302.706 89.7666L302.42 89.3566L301.718 89.8469L302.004 90.2568L302.29 90.6668L302.992 90.1766L302.706 89.7666ZM302.004 90.2568L301.662 90.6213L342 128.5L342.342 128.136L342.684 127.771L302.346 89.8923L302.004 90.2568ZM342.342 128.136L342.022 128.52L342.033 128.53L342.354 128.146L342.674 127.761L342.662 127.752L342.342 128.136ZM342.354 128.146L341.984 128.482L341.993 128.493L342.363 128.156L342.733 127.82L342.723 127.809L342.354 128.146ZM342.363 128.156L342 128.5L419 210L419.363 209.656L419.727 209.313L342.727 127.813L342.363 128.156ZM419.363 209.656L419 210L419.298 210.315L419.661 209.972L420.025 209.628L419.727 209.313L419.363 209.656ZM419.661 209.972L419.27 209.66L418.999 210L419.391 210.312L419.782 210.623L420.052 210.283L419.661 209.972ZM419.391 210.312L419 210L365.567 277.041L365.958 277.353L366.349 277.664L419.782 210.623L419.391 210.312ZM365.958 277.353L366.092 277.834L367.087 277.557L366.952 277.075L366.818 276.594L365.824 276.871L365.958 277.353ZM366.952 277.075L366.573 276.749L365.717 277.746L366.097 278.071L366.476 278.397L367.331 277.401L366.952 277.075ZM366.097 278.071L365.901 278.531L367 279L367.196 278.54L367.392 278.08L366.293 277.611L366.097 278.071ZM367.196 278.54L366.736 278.344L366.344 279.264L366.804 279.46L367.264 279.656L367.656 278.736L367.196 278.54ZM366.804 279.46L367 279L365.61 278.407L365.414 278.867L365.218 279.327L366.608 279.92L366.804 279.46ZM365.414 278.867L365.035 278.542L269 390.5L269.38 390.825L269.759 391.151L365.794 279.193L365.414 278.867ZM269.38 390.825L269.001 390.499L268.868 390.653L269.247 390.979L269.626 391.306L269.759 391.151L269.38 390.825ZM269.247 390.979L269.201 390.482L268.999 390.5L269.045 390.998L269.091 391.496L269.293 391.477L269.247 390.979ZM269.045 390.998L269 390.5L124.5 403.5L124.545 403.998L124.59 404.496L269.09 391.496L269.045 390.998ZM124.545 403.998L124.5 403.5L124.008 403.544L124.053 404.042L124.097 404.54L124.589 404.496L124.545 403.998ZM124.053 404.042L124.55 403.992L124.5 403.5L124.003 403.551L123.505 403.601L123.555 404.092L124.053 404.042ZM124.003 403.551L124.5 403.5L110.784 270.264L110.287 270.315L109.79 270.367L123.506 403.602L124.003 403.551ZM110.287 270.315L109.896 270.004L109.5 270.501L109.891 270.812L110.282 271.124L110.678 270.627L110.287 270.315ZM109.891 270.812L109.5 270.5L108.711 271.486L109.102 271.799L109.492 272.111L110.281 271.125L109.891 270.812ZM109.102 271.799L109.6 271.759L109.5 270.5L109.002 270.539L108.504 270.578L108.603 271.838L109.102 271.799ZM109.002 270.539L109.5 270.499L109.291 267.868L108.793 267.907L108.295 267.947L108.504 270.579L109.002 270.539ZM108.793 267.907L109.187 267.6L49.4999 191L49.1055 191.308L48.7111 191.615L108.399 268.215L108.793 267.907ZM49.1055 191.308L49.4996 191L49.2877 190.728L48.8936 191.036L48.4994 191.344L48.7113 191.615L49.1055 191.308ZM48.8936 191.036L49.3212 191.295L49.4999 191L49.0723 190.741L48.6446 190.482L48.4659 190.777L48.8936 191.036ZM49.0723 190.741L49.5 191L97 112.5L96.5723 112.241L96.1445 111.982L48.6445 190.482L49.0723 190.741ZM96.5723 112.241L97.0001 112.5L97.2482 112.09L96.8203 111.831L96.3925 111.572L96.1444 111.982L96.5723 112.241ZM96.8203 111.831L96.5797 112.269L96.9997 112.5L97.2402 112.062L97.4808 111.623L97.0609 111.393L96.8203 111.831ZM97.2402 112.062L96.9995 112.5L192.933 165.188L193.174 164.75L193.415 164.312L97.4809 111.623L97.2402 112.062ZM193.174 164.75L193.659 164.872L217.5 70.5004L217.016 70.3779L216.531 70.2555L192.689 164.628L193.174 164.75ZM217.016 70.3779L217.5 70.5004L217.621 70.0248L217.136 69.9023L216.651 69.7799L216.531 70.2555L217.016 70.3779ZM217.136 69.9023L217.023 70.3895L217.501 70.4999L217.613 70.0127L217.726 69.5255L217.248 69.4152L217.136 69.9023ZM125.734 402.887L125.779 403.385L267.844 390.603L267.799 390.105L267.754 389.607L125.69 402.389L125.734 402.887ZM267.799 390.105L268.13 389.731L195.869 325.827L195.538 326.201L195.207 326.576L267.468 390.48L267.799 390.105ZM195.538 326.201L195.168 325.865L125.365 402.55L125.734 402.887L126.104 403.223L195.908 326.538L195.538 326.201ZM111.177 269.204L110.679 269.255L124.384 402.387L124.882 402.336L125.379 402.285L111.674 269.153L111.177 269.204ZM124.882 402.336L125.252 402.673L195.112 325.924L194.742 325.588L194.372 325.251L124.512 401.999L124.882 402.336ZM194.742 325.588L195.024 325.175L111.788 268.379L111.506 268.792L111.224 269.205L194.46 326.001L194.742 325.588ZM111.506 268.792L111.115 268.48L110.786 268.892L111.177 269.204L111.567 269.516L111.897 269.104L111.506 268.792ZM196.992 325.601L196.492 325.611L196.5 326L197 325.99L197.5 325.98L197.492 325.591L196.992 325.601ZM197 325.99L196.992 325.49L196.806 325.493L196.813 325.993L196.821 326.493L197.008 326.49L197 325.99ZM196.813 325.993L196.482 326.368L268.619 390.163L268.95 389.788L269.281 389.414L197.145 325.619L196.813 325.993ZM268.95 389.788L269.33 390.114L364.427 279.25L364.048 278.925L363.668 278.599L268.571 389.463L268.95 389.788ZM364.048 278.925L363.913 278.443L196.858 325.119L196.992 325.601L197.127 326.082L364.182 279.406L364.048 278.925ZM112.133 268.009L111.851 268.422L195.308 325.368L195.59 324.955L195.872 324.542L112.415 267.596L112.133 268.009ZM195.59 324.955L195.726 325.436L196.113 325.327L195.978 324.846L195.842 324.364L195.454 324.474L195.59 324.955ZM195.978 324.846L196.477 324.836L193.525 166.883L193.025 166.893L192.525 166.902L195.478 324.855L195.978 324.846ZM193.025 166.893L192.635 166.58L111.742 267.696L112.133 268.009L112.523 268.321L193.416 167.205L193.025 166.893ZM194.005 165.757L193.505 165.766L196.473 324.578L196.973 324.568L197.473 324.559L194.505 165.747L194.005 165.757ZM196.973 324.568L197.107 325.05L363.88 278.452L363.745 277.971L363.611 277.489L196.838 324.087L196.973 324.568ZM363.745 277.971L364.021 277.554L273.796 217.761L273.52 218.178L273.243 218.595L363.469 278.387L363.745 277.971ZM273.52 218.178L273.123 217.873L197.5 316L197.896 316.306L198.293 316.611L273.916 218.483L273.52 218.178ZM197.896 316.306L198.202 315.91L197.409 315.298L197.104 315.694L196.798 316.09L197.591 316.702L197.896 316.306ZM197.104 315.694L197.5 316L273.079 217.928L272.683 217.623L272.287 217.318L196.707 315.389L197.104 315.694ZM272.683 217.623L272.959 217.206L205.5 172.5L205.224 172.917L204.947 173.334L272.406 218.04L272.683 217.623ZM205.224 172.917L205.64 173.193L206.193 172.359L205.776 172.083L205.36 171.807L204.807 172.641L205.224 172.917ZM205.776 172.083L205.5 172.5L273.019 217.245L273.295 216.828L273.571 216.411L206.053 171.666L205.776 172.083ZM273.295 216.828L273.691 217.133L341.722 128.858L341.326 128.553L340.93 128.248L272.899 216.523L273.295 216.828ZM341.326 128.553L341.668 128.188L301.509 90.4773L301.167 90.8418L300.825 91.2063L340.984 128.917L341.326 128.553ZM301.167 90.8418L300.881 90.432L193.718 165.347L194.005 165.757L194.291 166.167L301.453 91.2516L301.167 90.8418ZM274.132 217.383L273.856 217.8L363.826 277.424L364.103 277.007L364.379 276.59L274.408 216.966L274.132 217.383ZM364.103 277.007L364.597 276.932L342.176 129.657L341.682 129.732L341.187 129.808L363.608 277.082L364.103 277.007ZM341.682 129.732L341.286 129.427L273.736 217.078L274.132 217.383L274.528 217.688L342.078 130.038L341.682 129.732ZM365.088 276.841L365.479 277.152L418.729 210.339L418.338 210.027L417.947 209.716L364.697 276.529L365.088 276.841ZM418.338 210.027L418.701 209.684L343.098 129.662L342.734 130.006L342.371 130.349L417.974 210.371L418.338 210.027ZM342.734 130.006L342.24 130.081L364.594 276.916L365.088 276.841L365.582 276.766L343.229 129.931L342.734 130.006ZM103.002 182.033L102.504 182.073L109.267 267.567L109.766 267.527L110.264 267.488L103.5 181.994L103.002 182.033ZM109.766 267.527L109.372 267.835L109.5 268L109.895 267.692L110.289 267.385L110.16 267.22L109.766 267.527ZM109.895 267.692L109.59 267.296L109.481 267.38L109.785 267.776L110.09 268.173L110.199 268.089L109.895 267.692ZM109.785 267.776L109.287 267.816L109.399 269.24L109.897 269.201L110.396 269.162L110.284 267.737L109.785 267.776ZM109.897 269.201L110.289 269.512L110.532 269.207L110.141 268.896L109.749 268.584L109.506 268.89L109.897 269.201ZM110.141 268.896L110.638 268.845L110.5 267.5L110.003 267.551L109.506 267.602L109.643 268.946L110.141 268.896ZM110.003 267.551L110.5 267.5L110.39 266.429L109.893 266.48L109.395 266.532L109.506 267.602L110.003 267.551ZM109.893 266.48L109.611 266.894L110.501 267.5L110.782 267.087L111.064 266.674L110.174 266.067L109.893 266.48ZM110.782 267.087L110.501 267.5L111.022 267.856L111.304 267.442L111.585 267.029L111.064 266.674L110.782 267.087ZM111.304 267.442L111.694 267.755L192.671 166.535L192.28 166.223L191.89 165.91L110.913 267.13L111.304 267.442ZM192.28 166.223L192.193 165.73L102.915 181.541L103.002 182.033L103.089 182.526L192.367 166.715L192.28 166.223ZM50.4043 191.347L50.0099 191.654L108.256 266.403L108.65 266.096L109.045 265.788L50.7987 191.039L50.4043 191.347ZM108.65 266.096L109.149 266.056L102.512 182.169L102.014 182.208L101.515 182.247L108.152 266.135L108.65 266.096ZM102.014 182.208L101.926 181.716L50.3171 190.854L50.4043 191.347L50.4915 191.839L102.101 182.7L102.014 182.208ZM50.498 190.315L50.5852 190.808L102.021 181.699L101.934 181.207L101.846 180.715L50.4109 189.823L50.498 190.315ZM101.934 181.207L102.432 181.168L97.1225 114.047L96.624 114.086L96.1256 114.125L101.435 181.246L101.934 181.207ZM96.624 114.086L96.1962 113.827L50.0703 190.057L50.498 190.315L50.9258 190.574L97.0518 114.345L96.624 114.086ZM102.923 181.031L103.01 181.524L192.103 165.747L192.016 165.255L191.928 164.763L102.836 180.539L102.923 181.031ZM192.016 165.255L192.256 164.817L97.811 112.946L97.5703 113.384L97.3296 113.822L191.775 165.693L192.016 165.255ZM97.5703 113.384L97.0719 113.423L102.424 181.071L102.923 181.031L103.421 180.992L98.0688 113.344L97.5703 113.384ZM194.312 164.321L194.599 164.731L300.579 90.6432L300.293 90.2334L300.006 89.8236L194.026 163.911L194.312 164.321ZM300.293 90.2334L300.406 89.7464L217.976 70.6106L217.863 71.0977L217.75 71.5847L300.18 90.7204L300.293 90.2334ZM217.863 71.0977L217.379 70.9752L193.828 164.199L194.312 164.321L194.797 164.444L218.348 71.2201L217.863 71.0977Z" fill="#EB6F92"/>
</svg>
