<?xml version="1.0" encoding="UTF-8" standalone="no"?>
<!-- Created with Inkscape (http://www.inkscape.org/) -->

<svg
   version="1.1"
   id="svg1"
   width="2723.9517"
   height="902.5387"
   viewBox="0 0 2723.9517 902.5387"
   xmlns="http://www.w3.org/2000/svg"
   xmlns:svg="http://www.w3.org/2000/svg">
  <defs
     id="defs1" />
  <g
     id="g1"
     transform="translate(-544.75035,-662.55934)">
    <g
       id="g22"
       transform="translate(58.702073,115.05934)">
      <path
         style="fill:#fffaf3"
         d="m 489.46676,1449.2347 c -3.45038,-2.4534 -3.4679,-4.7729 -3.4051,-450.7949 0.0484,-343.9656 0.3276,-439.33459 1.30098,-444.4398 l 1.23933,-6.5 1355.94903,0.3867 c 887.8439,0.25319 1356.6394,0.7269 1357.949,1.37218 1.1,0.54202 3.2375,2.1397 4.75,3.5504 l 2.75,2.5649 V 999 1442.6258 l -2.75,2.5649 c -1.5125,1.4107 -3.7329,3.0699 -4.9343,3.6871 -2.5026,1.2858 -2711.0415,1.6421 -2712.84894,0.3569 z"
         id="path28" />
      <path
         style="fill:#fffaf3"
         d="m 495.31136,1449.0837 c -2.85376,-0.3452 -5.45485,-0.8939 -5.78022,-1.2192 -0.32537,-0.3254 -1.02537,-3.2405 -1.55557,-6.4781 -1.53544,-9.3759 -1.21298,-878.11136 0.32902,-886.3864 l 1.21123,-6.5 1354.49208,0.33979 c 883.1492,0.22155 1355.6176,0.68173 1357.7265,1.32239 1.7789,0.54043 4.1414,2.13571 5.25,3.54507 2.0139,2.56032 2.0156,2.93255 2.0156,444.99335 0,302.5845 -0.3267,443.0412 -1.0334,444.3619 -0.5684,1.062 -2.7059,2.7695 -4.75,3.7943 -3.6188,1.8143 -39.2401,1.8764 -1353.2166,2.3589 -742.225,0.2726 -1351.83489,0.2131 -1354.68864,-0.132 z"
         id="path27" />
      <path
         style="fill:#d7827e"
         d="m 766.07194,1448 -275.42807,-0.5 -0.83043,-3 c -0.45673,-1.65 -0.9391,-203.025 -1.07193,-447.5 -0.19593,-360.60225 10e-4,-444.92468 1.04367,-446.75 l 1.28519,-2.25 h 448.4058 c 297.85853,0 448.61333,0.33574 449.02383,1 0.4113,0.66548 303.4592,1 905.9054,1 822.0931,0 905.5776,0.14483 908.4464,1.57597 1.7376,0.86679 3.6067,2.41221 4.1537,3.43426 0.655,1.22401 0.9945,152.88718 0.9945,444.33513 v 442.47684 l -3.0294,2.5491 c -1.6662,1.402 -4.4787,2.7783 -6.25,3.0585 -4.4251,0.6998 -2091.7176,1.1891 -2432.64866,0.5702 z"
         id="path26" />
      <path
         style="fill:#d7827e"
         d="m 766.07194,1448.0027 -275.42807,-0.5027 -0.81573,-3 c -1.25665,-4.6215 -1.05047,-892.21605 0.2078,-894.56716 C 491.05603,548.0268 497.28706,548 939.47617,548 c 264.51253,0 448.63383,0.36895 448.96183,0.89965 0.3058,0.4948 0.5631,202.85216 0.5719,449.68302 0.013,360.39033 -0.2329,448.94133 -1.247,449.58503 -1.2644,0.8026 -106.8772,0.7746 -621.69096,-0.165 z m 751.06776,-178.0789 c -29.9656,-2.7626 -52.6592,-16.2406 -68.3863,-40.6154 l -2.7045,-4.1916 18.5572,-13.0584 c 10.2065,-7.1821 19.1652,-13.0584 19.9082,-13.0584 0.743,0 1.6186,0.8432 1.9457,1.8739 0.9844,3.1016 11.7763,12.7054 17.5847,15.6488 7.0113,3.5528 9.8338,4.3626 18.9553,5.4383 19.6408,2.3161 38.5297,-4.1223 43.2233,-14.7329 2.6201,-5.9231 1.9197,-11.0037 -2.3932,-17.3596 -5.5666,-8.2037 -15.0035,-14.7307 -40.3301,-27.8942 -7.7,-4.0021 -17.6728,-9.1898 -22.1618,-11.5282 -12.1854,-6.3478 -19.0671,-11.3687 -26.8382,-19.5815 -11.3097,-11.9525 -15.4677,-22.4104 -15.4881,-38.9546 -0.024,-19.2846 5.399,-32.4358 18.9392,-45.9298 6.6811,-6.6584 10.406,-9.4497 17.0489,-12.7759 15.7929,-7.908 31.7489,-10.7681 51.0965,-9.1591 20.5352,1.7077 34.6698,7.6243 46.517,19.4716 6.5183,6.5182 13.8781,17.7352 13.8844,21.1609 0,2.0629 -34.6929,26.2373 -35.2517,24.561 -0.7064,-2.1193 -6.1218,-8.3584 -9.7743,-11.261 -7.6844,-6.1068 -20.8948,-9.0645 -31.0886,-6.9605 -21.586,4.4553 -30.3985,21.9821 -16.9777,33.7658 3.9564,3.4738 13.9409,8.6987 32.7872,17.1576 23.5161,10.555 38.5029,20.0241 50.701,32.0342 12.6305,12.4359 18.0229,24.4746 18.8677,42.1224 1.7771,37.124 -21.3487,64.1648 -61.7615,72.217 -10.0151,1.9956 -25.3909,2.6669 -36.8603,1.6096 z m 599.3603,-0.8807 c -36.2283,-7.811 -63.9357,-36.6896 -70.4376,-73.4151 -0.6603,-3.7293 -1.0523,-35.2929 -1.0743,-86.5 l -0.035,-80.628 h 23.7734 23.7733 l 0.5,80 c 0.5404,86.4654 0.2079,81.1922 5.8075,92.0972 3.0258,5.8926 11.9406,14.1844 18.8571,17.5393 25.4063,12.3234 55.9271,-3.6189 61.3147,-32.0273 0.6384,-3.3662 1.0207,-33.986 1.0207,-81.7457 V 1028 h 24 24 v 79.369 c 0,65.8189 -0.2543,80.8275 -1.4898,87.9121 -3.9223,22.492 -14.6684,40.9348 -32.3583,55.5339 -9.096,7.5068 -22.4113,14.2376 -34.1519,17.2635 -12.2177,3.1488 -31.3967,3.5741 -43.5,0.9646 z m -196.5,0.2802 c -16.508,-2.6702 -35.0422,-9.3279 -46.8913,-16.8437 -22.9878,-14.5813 -39.7494,-34.0717 -50.0715,-58.2234 -11.6641,-27.2913 -12.5806,-60.9772 -2.3953,-88.0368 6.9142,-18.3696 15.2437,-31.1505 29.831,-45.7734 24.5165,-24.5764 52.4955,-36.4463 85.9081,-36.4458 23.649,3e-4 43.373,6.1413 63.1866,19.673 8.1999,5.6001 19.0441,14.3365 19.7554,15.9155 0.2698,0.5988 -1.3801,3.6216 -3.6663,6.7172 -16.1404,21.8552 -21.1983,28.8476 -21.49,29.7093 -0.615,1.817 -2.4193,1.0119 -7.5589,-3.3727 -10.1893,-8.6927 -21.9954,-15.055 -34.0088,-18.3273 -9.5251,-2.5946 -25.3159,-2.358 -34.599,0.5184 -26.1307,8.0965 -45.4012,27.4042 -53.5882,53.6918 -1.4258,4.578 -1.862,9.1303 -1.8661,19.4746 0,12.1993 0.2632,14.2708 2.7822,21.5 8.8561,25.4156 30.6687,45.2619 56.5777,51.4774 8.4554,2.0284 23.3274,1.5438 31.5944,-1.0295 12.8895,-4.0121 24.2443,-10.8062 34.7557,-20.7957 4.5227,-4.2981 3.5447,-5.0321 15.1196,11.3478 4.6639,6.6 10.3124,14.5359 12.5523,17.6352 2.2398,3.0994 4.0724,5.8895 4.0724,6.2003 0,0.9183 -15.9972,13.986 -22.5,18.3796 -11.4638,7.7455 -24.5013,13.0699 -38.5109,15.7275 -7.5965,1.441 -32.1026,1.9946 -38.9891,0.8807 z M 1645.2459,1147.25 1645.5,1028.5 l 71.25,-0.2567 c 47.3077,-0.1704 71.2569,0.082 71.2704,0.75 0.214,10.5539 -0.047,45.3663 -0.3419,45.6615 -0.2217,0.2217 -21.5026,0.5026 -47.2908,0.6242 L 1693.5,1075.5 v 23 23 l 40.8576,0.5 40.8575,0.5 -0.1582,22.9673 c -0.087,12.632 -0.3,23.1091 -0.4733,23.2824 -0.1733,0.1733 -18.488,0.413 -40.6993,0.5327 l -40.3843,0.2176 -0.2676,24.1861 -0.2677,24.1861 4.2677,0.6361 c 2.3472,0.3499 23.7076,0.4911 47.4676,0.3139 l 43.2001,-0.3222 0.2999,23 c 0.165,12.65 0.1609,23.3375 -0.01,23.75 -0.17,0.4125 -32.4593,0.75 -71.7541,0.75 h -71.4451 z m 622,0 0.2541,-118.75 38.5,-0.3017 c 40.7004,-0.319 52.2679,0.4072 63.9673,4.0161 25.5649,7.886 46.6044,29.47 53.1241,54.4989 3.0435,11.684 2.8063,27.0336 -0.5993,38.7867 -2.9435,10.1583 -8.011,20.0782 -13.2819,26 -6.1858,6.9497 -15.1924,14.2574 -20.906,16.9627 -4.1085,1.9453 -5.4021,3.0499 -5.0646,4.3249 0.2492,0.9418 14.5847,21.4338 31.8567,45.5377 17.2721,24.1038 32.0211,44.6913 32.7757,45.75 1.3452,1.8872 0.7995,1.9243 -28,1.9058 l -29.372,-0.019 -7.1864,-10.7311 c -22.6236,-33.7825 -64.1357,-95.2517 -66.0319,-97.7769 l -2.2183,-2.9542 -0.032,55.75 L 2315,1266 h -24.0041 -24.0041 z m 88.9983,-13.7869 c 6.0816,-2.1115 13.5902,-8.8696 16.7681,-15.092 2.0387,-3.9919 2.4869,-6.315 2.4835,-12.8711 0,-6.9927 -0.3777,-8.6754 -2.9711,-13.3642 -3.5384,-6.3975 -9.5422,-11.5747 -16.4799,-14.2108 -4.3186,-1.6409 -7.721,-1.925 -23.0555,-1.925 H 2315 v 29.4579 29.458 l 7.75,0.4087 c 13.558,0.7151 28.4581,-0.113 33.4942,-1.8615 z M 2472,1147 v -119 h 24 24 v 119 119 h -24 -24 z m 133,24 v -95 h -29 -29 v -24 -24 h 82.5181 82.5181 l -0.2681,23.75 -0.2681,23.75 -29.25,0.2651 -29.25,0.2651 V 1171.0151 1266 h -24 -24 z m 189,43.8957 v -51.1044 l -13.6621,-25.1456 c -20.789,-38.2632 -50.0494,-92.1687 -54.9578,-101.2471 -2.409,-4.4558 -4.3801,-8.3933 -4.3801,-8.75 0,-0.3567 11.9146,-0.6486 26.4769,-0.6486 26.3573,0 26.4836,0.01 27.9404,2.25 0.8049,1.2375 4.3028,7.6721 7.7731,14.299 31.8309,60.7852 34.3382,65.3269 35.417,64.1545 0.6091,-0.6619 4.3768,-7.5035 8.3727,-15.2035 22.5518,-43.4564 33.5341,-64.0822 34.4681,-64.7347 1.3107,-0.9155 53.5518,-1.0137 53.5518,-0.1006 0,0.5977 -1.4959,3.4303 -11.0035,20.8353 -6.3078,11.5472 -41.0934,75.5791 -50.7944,93.5 -1.9352,3.575 -5.2474,9.5778 -7.3604,13.3395 L 2842,1163.1791 V 1214.5895 1266 h -24 -24 z M 2432,959.5737 C 2398.1239,953.30899 2372.8281,930.53114 2361.3986,896 l -2.8134,-8.5 -0.5426,-83.75363 c -0.2984,-46.06449 -0.3926,-84.20199 -0.2093,-84.75 0.209,-0.62476 9.2533,-0.99637 24.25,-0.99637 H 2406 v 78.39466 c 0,76.04597 0.061,78.59227 2.0371,84.99015 7.9187,25.6377 35.4277,38.05867 59.35,26.79793 12.8485,-6.0481 22.347,-18.65396 24.6264,-32.68274 0.5714,-3.51673 0.9773,-37.35132 0.9807,-81.75 L 2493,718 h 23.3 c 13.3691,0 23.7049,0.40459 24.25,0.94925 0.5933,0.59283 0.7499,31.85192 0.417,83.25 -0.5201,80.3298 -0.5844,82.48387 -2.6826,89.94717 -5.2421,18.64678 -12.8322,31.40486 -26.2597,44.13945 -13.236,12.55306 -28.1604,20.10969 -46.0247,23.30349 -9.0976,1.62649 -25.1602,1.6191 -34,-0.0157 z m -788.0617,-2.44237 c -1.4089,-1.44723 -25.0339,-24.45558 -52.5,-51.12966 -27.4661,-26.67407 -57.4657,-55.89671 -66.6658,-64.93919 -9.2001,-9.04247 -17.0751,-16.09354 -17.5,-15.66904 -0.4249,0.4245 -0.9091,29.98464 -1.076,65.68919 L 1505.8929,956 H 1482.1965 1458.5 l 0.2379,-120.74597 c 0.1675,-85.03493 0.5559,-120.85195 1.313,-121.10433 1.0631,-0.35437 4.4967,2.90607 51.4441,48.8503 60.9885,59.6853 89.3022,86.86943 89.8787,86.29293 0.3445,-0.34444 0.6263,-30.02626 0.6263,-65.9596 V 718 h 24 24 v 121 c 0,114.61664 -0.092,120.99374 -1.75,120.88133 -0.9625,-0.0653 -2.9028,-1.30277 -4.3117,-2.75 z m 137.6588,1.31592 c -35.2469,-6.60539 -66.5098,-29.04318 -84.9184,-60.94725 -11.2085,-19.42532 -16.4258,-41.26989 -15.4318,-64.61115 1.3842,-32.50429 12.4567,-58.23407 35.132,-81.6387 16.4325,-16.96098 35.1991,-28.01006 57.6211,-33.9252 11.9213,-3.14494 35.6195,-4.28378 48.9015,-2.35 44.6571,6.50182 84.0337,39.76313 98.8815,83.52505 8.0368,23.68727 8.125,53.05558 0.2302,76.61998 -13.7535,41.05153 -45.2927,70.30696 -88.0132,81.64014 -8.0595,2.13809 -12.1535,2.56935 -27,2.84419 -12.4525,0.23053 -19.7794,-0.1032 -25.4029,-1.15706 z m 37.5888,-47.89897 c 37.9923,-8.05201 64.567,-44.11522 59.9052,-81.29414 -2.239,-17.85657 -9.5896,-32.97106 -22.0083,-45.25414 -15.8247,-15.65194 -34.2776,-22.72283 -56.5828,-21.68181 -16.587,0.77414 -28.4295,5.17081 -42.3425,15.72017 -12.28,9.31119 -21.7606,23.51503 -26.3395,39.46164 -3.2229,11.2241 -3.1691,28.72115 0.1214,39.5 8.2431,27.00221 28.4071,46.45493 54.9108,52.97367 9.2758,2.28145 23.1213,2.52748 32.3357,0.57461 z M 2053.5,959.0461 c -43.567,-7.08461 -81.3475,-38.05756 -96.9344,-79.46796 -9.3428,-24.82174 -10.0573,-53.0905 -1.9875,-78.63611 14.0346,-44.42728 54.5114,-79.39954 99.4902,-85.96021 11.6682,-1.70194 34.0571,-0.77637 43.9317,1.81616 18.7918,4.93371 35.2544,13.7967 50.7475,27.32101 3.1639,2.7618 5.8988,5.42874 6.0776,5.92655 0.1788,0.49781 -1.8462,3.82662 -4.5,7.39735 -2.6538,3.57074 -8.6287,11.68184 -13.2776,18.02468 -4.6488,6.34284 -8.9522,11.53243 -9.5629,11.53243 -0.6107,0 -2.3947,-1.34051 -3.9644,-2.97892 -1.5697,-1.6384 -5.8164,-4.95701 -9.4371,-7.37468 -18.6458,-12.45042 -36.4234,-16.78484 -54.1287,-13.19729 -47.6177,9.64859 -74.84,58.6521 -56.6909,102.05089 4.973,11.89158 16.5613,26.16925 27.1142,33.40686 12.5487,8.60638 27.2282,13.36877 41.1223,13.34105 17.8687,-0.0356 33.3954,-6.62479 50.8041,-21.56012 3.2178,-2.76062 6.1568,-4.5803 6.5955,-4.08364 2.4819,2.80993 26.1004,36.58831 26.1004,37.32798 0,2.68446 -20.8127,18.76679 -31.5,24.34062 -16.1923,8.44485 -26.7134,10.91958 -48,11.29033 -9.35,0.16285 -19.25,-0.0698 -22,-0.51698 z m 916,-2.34096 c -1.65,-1.68164 -8.85,-8.70267 -16,-15.60229 -7.15,-6.89963 -23.8,-23.14277 -37,-36.09588 -51.1042,-50.14837 -82.6042,-80.23617 -83.2874,-79.55361 -0.3919,0.39154 -0.8492,29.92472 -1.0161,65.62927 L 2831.8929,956 H 2808.1965 2784.5 l 0.2379,-120.74597 c 0.1675,-85.03493 0.5559,-120.85195 1.313,-121.10433 0.5913,-0.19711 7.0052,5.42608 14.253,12.49596 7.2479,7.06989 23.9869,23.42934 37.1979,36.35434 61.863,60.52395 89.2986,86.8663 89.873,86.2919 0.3438,-0.34388 0.6252,-30.02523 0.6252,-65.95857 V 718 h 24 24 v 121 c 0,114.61664 -0.092,120.99374 -1.75,120.88133 -0.9625,-0.0653 -3.1,-1.49456 -4.75,-3.17619 z M 2226,861 v -95 h -29 -29 v -24 -24 h 81.9809 81.981 l 0.4946,2.25 c 0.2721,1.2375 0.3931,11.925 0.2691,23.75 l -0.2256,21.5 -29.25,0.2651 -29.25,0.26511 V 861.0151 956 h -24 -24 z m 354,-24.07972 V 717.84057 l 45.25,0.39981 c 42.6399,0.37675 45.7115,0.52521 53.25,2.57387 28.4947,7.74366 50.7775,29.40091 57.5681,55.95219 2.6299,10.28282 2.6091,26.98866 -0.046,37.23356 -5.0472,19.4719 -18.9294,37.07822 -35.3619,44.84822 l -5.8402,2.7615 31.359,43.94514 c 17.2474,24.16983 32.3936,45.40764 33.6583,47.19514 l 2.2993,3.25 -29.3181,-0.007 -29.3181,-0.007 -8.5246,-12.74318 c -34.9172,-52.19639 -64.4688,-95.97808 -65.6128,-97.20748 -1.1513,-1.23725 -1.3626,7.17388 -1.3626,54.25 V 956 h -24 -24 z m 88.7202,-13.26555 c 2.9212,-1.00485 7.3307,-3.69318 10.0123,-6.10416 16.1437,-14.51451 12.7685,-38.23543 -6.9374,-48.75726 -3.9875,-2.12909 -5.7094,-2.31659 -24.0451,-2.61837 L 2628,765.84988 V 795.67494 825.5 l 17.75,-0.0248 c 14.4254,-0.0201 18.7278,-0.36112 22.9702,-1.82048 z M 3017.2459,837.25 3017.5,718.5 l 71.25,-0.25666 c 47.3077,-0.17042 71.2569,0.0816 71.2704,0.75 0.214,10.55386 -0.047,45.36629 -0.3419,45.66148 -0.2217,0.22172 -21.5026,0.50259 -47.2908,0.62415 L 3065.5,765.5 v 23 23 l 40.8576,0.5 40.8575,0.5 -0.1582,22.96731 c -0.087,12.63203 -0.3,23.10911 -0.4733,23.28241 -0.1733,0.17331 -18.488,0.41301 -40.6993,0.53269 L 3065.5,859.5 l -0.2676,24.18608 -0.2677,24.18609 4.2677,0.63613 c 2.3472,0.34987 23.7076,0.49113 47.4676,0.31391 l 43.2001,-0.32221 0.2999,23 c 0.165,12.65 0.1609,23.3375 -0.01,23.75 -0.17,0.4125 -32.4593,0.75 -71.7541,0.75 h -71.4451 z"
         id="path25" />
      <path
         style="fill:#fffaf3"
         d="m 1037.2439,1446.75 c -0.5505,-0.6875 -1.3037,-4.4 -1.6738,-8.25 -0.37,-3.85 -1.3336,-11.9171 -2.1413,-17.9269 -0.8077,-6.0098 -2.3566,-18.6098 -3.442,-28 -1.0853,-9.3902 -2.8221,-24.0481 -3.8594,-32.5731 -9.8103,-80.6246 -14.3341,-120.1266 -13.8162,-120.6445 0.5727,-0.5728 43.3388,10.9362 66.1888,17.8123 11.9128,3.5849 42.4123,13.4994 118.0867,38.3868 30.8477,10.145 57.4998,18.4454 59.2269,18.4454 4.098,0 4.9638,-1.4164 11.0024,-18 5.498,-15.099 24.4709,-66.7754 32.6762,-89 2.9444,-7.975 7.9164,-21.475 11.049,-30 3.1326,-8.525 7.4423,-20.1931 9.5772,-25.9292 2.1349,-5.736 3.8816,-11.2234 3.8816,-12.1942 0,-0.9708 -1.0125,-2.8677 -2.25,-4.2153 -1.8331,-1.9962 -22.0032,-14.4905 -37.8967,-23.475 -1.8443,-1.0426 -10.7783,-6.3067 -19.8533,-11.698 -9.075,-5.3913 -18.075,-10.6977 -20,-11.792 -1.925,-1.0943 -5.075,-2.9817 -7,-4.1943 -1.925,-1.2127 -11.15,-6.7003 -20.5,-12.1948 -9.35,-5.4945 -22.5582,-13.2668 -29.3517,-17.2718 l -12.3516,-7.2817 -8.5446,-13.1269 c -4.6996,-7.2197 -9.9846,-15.3768 -11.7445,-18.1268 -7.3234,-11.4433 -16.383,-25.49365 -32.8843,-51 -9.6072,-14.85 -23.1543,-35.8493 -30.1047,-46.66511 -14.2999,-22.25276 -12.0095,-20.37922 -31.5186,-25.78218 -6.325,-1.75167 -14.2,-4.01829 -17.5,-5.03692 -3.3,-1.01864 -10.95,-3.20941 -17,-4.86839 -12.3518,-3.38699 -35.5729,-9.92138 -80.5,-22.65257 -69.81029,-19.78245 -86.3626,-24.5241 -86.66492,-24.82641 -0.59367,-0.59367 1.55173,-133.83253 3.1407,-195.05119 1.42343,-54.84088 1.42736,-61.11612 0.0396,-63.23413 -1.93882,-2.95901 -5.98307,-4.06746 -8.19019,-2.24477 -2.11,1.74249 -9.66956,13.30043 -41.1151,62.86167 -5.75789,9.075 -13.09214,20.55 -16.29832,25.5 -8.97092,13.85012 -21.49328,33.44807 -24.91954,39 -1.69711,2.75 -4.75213,7.58447 -6.78893,10.74327 -2.03681,3.1588 -8.35628,13.0588 -14.04328,22 -5.68699,8.9412 -13.56199,21.30741 -17.5,27.48046 -3.938,6.17304 -10.96393,17.19804 -15.61319,24.5 C 712.39756,793.52568 705.69877,804 702.16062,809.5 c -3.53816,5.5 -8.02133,12.475 -9.9626,15.5 -1.94127,3.025 -7.84248,11.94216 -13.1138,19.81592 C 667.989,861.38881 658.72498,875.95347 644,899.97444 c -5.775,9.4208 -12.16647,19.69302 -14.20328,22.82715 -2.0368,3.13412 -5.08693,7.94841 -6.77806,10.69841 -1.69114,2.75 -5.74953,9.05 -9.01866,14 -3.26913,4.95 -7.32647,11.25 -9.01632,14 -1.68985,2.75 -6.40639,10.175 -10.48121,16.5 -4.07482,6.325 -10.46735,16.34043 -14.20562,22.2565 -8.62491,13.6495 -11.04724,17.4495 -26.29685,41.2527 -6.875,10.7312 -15.65,24.4521 -19.5,30.4908 -3.85,6.0387 -12.625,19.7511 -19.5,30.472 -6.875,10.7208 -14.78688,23.1877 -17.58196,27.7042 -2.79509,4.5165 -5.60834,8.3872 -6.25168,8.6017 -0.89157,0.2972 -1.10987,-69.719 -0.91804,-294.44401 L 490.5,549.5 h 449 449 l 0.2744,447 c 0.1509,245.85 0.03,448.0125 -0.2691,449.25 l -0.5434,2.25 h -174.8585 c -138.6863,0 -175.0656,-0.2586 -175.8595,-1.25 z M 946.91229,843.7307 c 0.47453,-1.24811 1.6084,-7.43561 2.5197,-13.75 0.91131,-6.31438 2.50227,-16.4307 3.53548,-22.4807 1.03321,-6.05 2.80535,-16.85 3.93808,-24 1.13274,-7.15 4.0743,-25.6 6.53679,-41 2.4625,-15.4 6.07501,-38.125 8.02781,-50.5 3.29187,-20.86079 4.55768,-28.77071 10.6034,-66.25964 2.13959,-13.26734 2.15453,-13.83085 0.41773,-15.75 C 981.44052,608.82929 979.41509,608 977.63009,608 c -2.67799,0 -7.12093,4.02852 -35.59501,32.27484 -17.89429,17.75116 -39.88133,39.46366 -48.86007,48.25 -8.97875,8.78634 -16.72491,16.70254 -17.21369,17.59156 -0.48878,0.88902 -1.37173,27.85625 -1.96212,59.92717 -0.89108,48.40516 -0.84638,58.53782 0.26314,59.64734 0.73511,0.73511 7.16431,3.1431 14.28711,5.35108 14.13086,4.3804 52.87451,14.7154 55.7253,14.86493 0.97982,0.0514 2.1612,-0.92337 2.63754,-2.17622 z m 570.22741,426.1991 c -28.612,-2.6563 -51.6508,-15.9454 -66.9557,-38.6211 l -4.1788,-6.1913 17.7474,-12.3927 c 9.7611,-6.8159 18.3265,-12.7292 19.0343,-13.1405 0.8473,-0.4924 3.4709,1.611 7.6802,6.1574 6.2402,6.74 14.5372,12.2057 21.8282,14.3795 6.4094,1.9109 18.8262,2.8144 26.0346,1.8944 14.5755,-1.8602 23.6165,-6.4736 27.4201,-13.9919 3.9564,-7.8202 2.1791,-14.8274 -5.8419,-23.0334 -6.4066,-6.5544 -15.6815,-12.3055 -41.9517,-26.013 -27.6808,-14.4435 -35.2669,-19.3791 -43.9564,-28.5984 -10.7976,-11.456 -15,-22.4574 -15,-39.2681 0,-16.7578 5.3313,-30.7264 16.2929,-42.6891 16.7838,-18.3165 41.4434,-26.8172 70.7305,-24.3823 20.5591,1.7093 34.7778,7.6371 46.4237,19.3542 6.3842,6.4233 14.0529,18.0693 14.0529,21.3413 0,0.6792 -7.65,6.6212 -17,13.2045 l -17,11.9697 -1.7619,-2.2045 c -0.9691,-1.2125 -3.0428,-3.7858 -4.6083,-5.7184 -3.5657,-4.4021 -10.943,-8.4672 -19.2088,-10.5849 -18.9074,-4.8438 -39.921,6.3526 -39.921,21.2706 0,8.1719 5.7188,13.4381 23.9964,22.097 39.6024,18.7615 49.3518,24.3003 61.6079,35.0005 19.5352,17.0551 27.0734,39.5101 21.8131,64.9771 -7.8041,37.7817 -46.749,59.8743 -97.2777,55.1834 z m 599.8344,-0.8032 c -35.9884,-7.8766 -62.7107,-34.7882 -70.0726,-70.569 -1.7255,-8.3859 -1.8668,-15.0271 -1.9059,-89.5576 l -0.042,-80.5 h 23.7734 23.7733 l 0.5,80 c 0.4457,71.3072 0.6795,80.4452 2.1517,84.0972 6.8336,16.9511 18.7676,26.9659 35.1778,29.5207 12.0753,1.88 26.0386,-2.7052 35.668,-11.7123 5.8045,-5.4294 11.4678,-16.0091 13.0037,-24.2921 0.6093,-3.286 0.9988,-35.1647 0.9988,-81.75 V 1028 h 24.0381 24.0382 l -0.3287,82.75 c -0.3212,80.8557 -0.3777,82.9337 -2.4694,90.7756 -5.4514,20.4373 -15.3719,36.3005 -30.4731,48.7275 -16.563,13.6298 -32.852,19.5555 -55.8051,20.301 -10.7037,0.3477 -15.266,0.052 -22.0259,-1.4275 z M 1920,1269.3233 c -23.3099,-3.7704 -44.6183,-13.3443 -61.5,-27.6319 -31.8389,-26.9465 -47.6407,-63.9802 -44.4569,-104.1914 3.3795,-42.6845 29.9836,-81.4574 69.4648,-101.2385 16.9499,-8.4923 33.1548,-12.2615 52.716,-12.2615 28.582,0 52.2856,9.19 76.0887,29.4998 l 7.7223,6.5891 -2.9998,4.2056 c -1.6499,2.313 -5.4892,7.5805 -8.5317,11.7055 -3.0425,4.125 -7.6629,10.5232 -10.2676,14.2182 -2.6047,3.6951 -5.1132,6.7326 -5.5744,6.75 -0.4613,0.017 -3.0566,-1.9084 -5.7675,-4.2798 -12.618,-11.0379 -30.7501,-19.0044 -46.0872,-20.2489 -22.5883,-1.8328 -48.538,10.5908 -63.2426,30.2778 -11.6643,15.6167 -15.0673,25.8511 -15.0567,45.2827 0.01,12.578 0.2209,14.0984 3.1347,22.2612 4.3974,12.3192 8.5801,18.883 18.3579,28.8082 27.6432,28.0603 64.5169,31.0046 95.5066,7.6262 3.2964,-2.4868 7.3151,-5.9106 8.9305,-7.6085 1.6154,-1.6979 3.2815,-3.0871 3.7024,-3.0871 0.7285,0 27.8605,37.4154 27.8605,38.42 0,0.5327 -14.5046,12.6348 -20,16.6873 -10.0653,7.4224 -25.9783,14.2227 -39.7778,16.9986 -8.8242,1.7751 -32.3685,2.4877 -40.2222,1.2174 z M 1645.2459,1147.25 1645.5,1028.5 l 71.25,-0.2567 71.25,-0.2566 v 22.5066 c 0,12.3787 3e-4,22.8442 6e-4,23.2567 3e-4,0.4125 -21.2622,0.975 -47.25,1.25 l -47.2506,0.5 v 23 23 l 40.75,0.2612 40.75,0.2612 v 23.4776 23.4776 l -40.75,0.2612 -40.75,0.2612 -0.2676,24.1861 -0.2677,24.1861 4.2677,0.6223 c 2.3472,0.3423 23.7303,0.4836 47.5181,0.3139 l 43.2505,-0.3084 -5e-4,23.75 -5e-4,23.75 h -71.5041 -71.5041 z m 622,0 0.2541,-118.75 38,-0.2942 c 49.8776,-0.3861 60.838,0.8991 76.9464,9.0225 19.398,9.7824 35.374,29.2342 40.6424,49.485 5.5048,21.159 -0.043,48.068 -13.1498,63.7867 -6.2511,7.4966 -15.5103,15.1133 -22.0331,18.1246 -5.4471,2.5148 -5.7343,2.8188 -4.6075,4.8787 0.6609,1.2083 15.1516,21.6501 32.2016,45.4262 17.05,23.7762 31.6174,44.0937 32.372,45.15 1.3443,1.8818 0.7794,1.9199 -28,1.8894 l -29.372,-0.031 -10.1634,-15.2188 c -29.7451,-44.5409 -62.7478,-93.398 -63.9579,-94.6832 -1.1726,-1.2454 -1.3787,6.8628 -1.3787,54.25 V 1266 h -24.0041 -24.0041 z m 89.2541,-13.8707 c 7.0636,-2.4455 15.5879,-11.1171 17.9658,-18.2763 4.5804,-13.7902 -1.7052,-28.8858 -14.9658,-35.9423 -4.8512,-2.5815 -5.5879,-2.6704 -24.75,-2.9858 l -19.75,-0.325 v 29.533 29.533 l 7.75,0.4087 c 13.8642,0.7313 28.4466,-0.1093 33.75,-1.9453 z M 2472,1147 v -119 h 24 24 v 119 119 h -24 -24 z m 133,24 v -95 h -29 -29 v -24 -24 h 82.5181 82.5181 l -0.2681,23.75 -0.2681,23.75 -29.25,0.2651 -29.25,0.2651 V 1171.0151 1266 h -24 -24 z m 189,43.8833 v -51.1168 l -36.5,-67.3005 c -20.075,-37.0153 -36.5,-67.5628 -36.5,-67.8833 0,-0.3205 11.9316,-0.5827 26.5147,-0.5827 h 26.5147 l 1.7353,2.8821 c 0.9544,1.5852 10.7353,20.0338 21.7353,40.9968 11,20.9631 20.225,38.1036 20.5,38.09 0.275,-0.014 9.4655,-17.2246 20.4233,-38.2468 10.9579,-21.0222 20.776,-39.4596 21.8181,-40.9721 l 1.8948,-2.75 h 26.4319 c 14.5375,0 26.4319,0.2636 26.4319,0.5857 0,0.3221 -4.5593,8.9846 -10.1317,19.25 -33.0586,60.8996 -54.6825,100.6411 -58.5041,107.5221 L 2842,1163.2157 V 1214.6078 1266 h -24 -24 z M 2431.6328,959.44748 c -34.1599,-6.78797 -59.7233,-30.09457 -70.3627,-64.15089 l -2.748,-8.79659 -0.2986,-84.25 -0.2986,-84.25 H 2381.9625 2406 v 78.3185 c 0,85.08301 -0.1532,82.51414 5.5968,93.86911 7.4886,14.78868 27.7653,24.88028 43.9714,21.88441 8.2564,-1.52627 17.5201,-6.13907 23.4293,-11.66647 6.0635,-5.6717 11.6177,-16.29933 13.016,-24.90555 0.5714,-3.51682 0.9773,-37.35766 0.9807,-81.7681 l 0.01,-75.7681 23.75,0.2681 23.75,0.2681 -0.015,82.5 -0.015,82.5 -2.6212,9.5 c -4.9631,17.98732 -12.7141,30.9355 -26.057,43.52852 -17.3357,16.36142 -38.4684,24.48928 -63.2918,24.34263 -5.5,-0.0325 -13.0902,-0.67315 -16.8672,-1.42367 z M 1626.8439,940.29613 C 1615.6548,929.459 1597.725,912.01274 1587,901.52665 c -10.725,-10.48608 -27.15,-26.50457 -36.5,-35.59662 -9.35,-9.09206 -22.85,-22.22914 -30,-29.19351 l -13,-12.66249 -0.6624,4.71298 c -0.3643,2.59215 -0.7018,32.27549 -0.75,65.96299 L 1506,956 l -23.75,2e-5 -23.75,3e-5 0.2458,-120.74861 c 0.173,-85.00868 0.5638,-120.85465 1.3205,-121.10688 0.5911,-0.19704 7.899,6.32732 16.2396,14.49859 C 1548.5434,799.41393 1600.6847,850 1601.3939,850 1601.7273,850 1602,820.3 1602,784 v -66 h 24 24 v 121 c 0,103.29772 -0.2057,121 -1.4061,121 -0.7734,0 -10.5609,-8.86674 -21.75,-19.70387 z M 1782,958.45545 c -21.3617,-3.88805 -42.0325,-13.91823 -58.3259,-28.30175 -29.1208,-25.70734 -44.1133,-60.29969 -42.4202,-97.877 1.4467,-32.11108 12.8699,-58.27064 35.606,-81.53926 16.4636,-16.84921 34.7648,-27.38978 58.6401,-33.77375 11.4623,-3.06488 37.5032,-3.8625 49.874,-1.52763 27.1085,5.1165 49.3474,17.09306 68.162,36.70803 21.3857,22.29551 32.8962,49.34804 34.1903,80.35591 1.8261,43.75275 -19.6666,84.59277 -57.2263,108.74027 -12.5299,8.0556 -26.1667,13.42265 -42.6571,16.78858 -11.5306,2.35356 -34.1018,2.5636 -45.8429,0.4266 z m 43.5,-49.4637 c 28.7769,-9.13187 48.028,-30.92188 53.071,-60.07026 5.2908,-30.58069 -10.9447,-63.50761 -38.3241,-77.72447 -14.0284,-7.28427 -19.8379,-8.69733 -35.7469,-8.69477 -10.7337,0.002 -15.3998,0.43065 -20,1.83847 -21.6345,6.62094 -38.6584,21.06964 -47.906,40.65928 -5.5221,11.69786 -7.0567,18.77164 -7.0507,32.5 0,9.73489 0.4445,13.41569 2.3318,19.5 8.62,27.78948 29.1272,47.2403 56.4052,53.49963 9.2316,2.11832 28.2163,1.3492 37.2197,-1.50788 z m 225.0971,49.45633 C 1992.4169,947.53877 1949.1,895.96058 1949.0215,837.5 c -0.076,-56.154 39.9551,-106.79665 95.3394,-120.61374 10.6338,-2.65289 33.6412,-3.64393 44.3856,-1.9119 15.2108,2.45202 32.0035,9.20163 46.2214,18.57805 6.7101,4.42519 19.282,14.85 19.8517,16.4614 0.1758,0.49721 -2.7666,5.08501 -6.5388,10.19511 -3.7721,5.11009 -9.746,13.22858 -13.2754,18.04108 -3.5293,4.8125 -6.711,8.75 -7.0704,8.75 -0.3594,0 -2.6293,-1.71832 -5.0442,-3.8185 -19.054,-16.57048 -42.3901,-23.886 -62.9548,-19.73535 -32.0666,6.47216 -56.1716,31.1419 -61.5532,62.99555 -4.2253,25.00947 5.9239,51.03864 26.5901,68.19406 15.8022,13.11775 36.7609,19.81302 54.2554,17.33187 14.6336,-2.07542 27.8267,-8.43409 41.6614,-20.07938 3.9813,-3.35127 7.3958,-5.93459 7.5878,-5.74073 1.4627,1.47681 26.5225,37.27464 26.5225,37.88732 0,1.27056 -13.9855,13.30357 -20.5,17.63807 -11.3628,7.56035 -21.2133,12.03822 -34,15.45584 -10.5767,2.82694 -37.9966,3.55186 -49.9029,1.31933 z m 902.2468,-18.15195 C 2941.6548,929.459 2923.725,912.01274 2913,901.52665 c -10.725,-10.48608 -27.15,-26.50457 -36.5,-35.59662 -9.35,-9.09206 -22.85,-22.22914 -30,-29.19351 l -13,-12.66249 -0.6624,4.71298 c -0.3643,2.59215 -0.7018,32.27549 -0.75,65.96299 L 2832,956 l -23.75,2e-5 -23.75,3e-5 0.2458,-120.74861 c 0.173,-85.00868 0.5638,-120.85465 1.3205,-121.10688 0.5911,-0.19704 7.899,6.32732 16.2396,14.49859 C 2874.5434,799.41393 2926.6847,850 2927.3939,850 2927.7273,850 2928,820.3 2928,784 v -66 h 24 24 v 121 c 0,103.29772 -0.2057,121 -1.4061,121 -0.7734,0 -10.5609,-8.86674 -21.75,-19.70387 z M 2226,861 v -95 h -29 -29 v -24 -24 h 81.893 c 66.6689,0 81.9866,0.24398 82.3966,1.31241 0.7574,1.97365 0.8877,43.06206 0.1427,45.00336 C 2331.847,765.84097 2329.0578,766 2302.893,766 H 2274 v 95 95 h -24 -24 z m 354,-24.087 V 717.826 l 45.25,0.41625 c 51.7054,0.47563 52.8505,0.62918 70.75,9.48762 8.1481,4.03246 10.9307,6.12949 19.5533,14.73583 11.4337,11.41218 17.0619,20.79999 20.4782,34.15754 2.6904,10.51929 2.6734,26.30062 -0.04,36.90878 -5.1013,19.94577 -18.2272,36.92257 -34.7392,44.93093 -3.1639,1.53451 -5.9118,2.9298 -6.1064,3.10063 -0.2677,0.23505 61.1173,86.7385 66.1274,93.18642 0.7723,0.99389 -5.0468,1.24094 -28.4012,1.20576 l -29.3724,-0.0442 -12.5468,-18.70577 c -6.9008,-10.28817 -23.7758,-35.35576 -37.5,-55.70576 l -24.9532,-37 -0.2584,55.75 -0.2584,55.75 H 2603.9916 2580 Z m 87.9692,-12.77222 c 5.1408,-1.6699 12.159,-6.79163 15.3066,-11.17047 10.9469,-15.22913 5.7953,-34.94376 -11.5536,-44.21417 -3.8989,-2.08338 -5.7345,-2.28103 -23.9722,-2.5812 L 2628,765.84988 v 29.83152 29.83152 l 18.25,-0.12263 c 10.4579,-0.0703 19.7312,-0.60377 21.7192,-1.24951 z M 3017.2459,837.25 3017.5,718.5 l 71.25,-0.25666 71.25,-0.25667 v 22.50667 c 0,12.37866 3e-4,22.84416 6e-4,23.25666 3e-4,0.4125 -21.2622,0.975 -47.25,1.25 l -47.2506,0.5 v 23 23 l 40.75,0.26122 40.75,0.26121 V 835.5 858.97757 l -40.75,0.26121 -40.75,0.26122 -0.2676,24.18608 -0.2677,24.18609 4.2677,0.62234 c 2.3472,0.3423 23.7303,0.48356 47.5181,0.31392 l 43.2505,-0.30843 -5e-4,23.75 L 3160,956 h -71.5041 -71.5041 z"
         id="path24" />
      <path
         style="fill:#fffaf3"
         d="m 1210.7948,1447.2579 -173.7052,-0.2635 -0.5401,-3.2472 c -0.4961,-2.9826 -1.8845,-14.3329 -7.4919,-61.2472 -1.1176,-9.35 -3.1491,-26.225 -4.5145,-37.5 -1.3654,-11.275 -3.859,-31.975 -5.5413,-46 -1.6824,-14.025 -3.9678,-32.8807 -5.0789,-41.9015 -1.191,-9.6707 -1.6521,-16.7693 -1.1236,-17.2978 0.5286,-0.5286 1.8822,-0.5028 3.2986,0.063 1.3211,0.5276 8.4771,2.5986 15.9021,4.6022 39.5524,10.6728 55.6848,15.6432 125,38.5124 70.9223,23.3995 95.9698,31.3612 98.75,31.3892 1.7875,0.018 3.7488,-0.4661 4.3584,-1.0757 0.6097,-0.6097 3.476,-7.5622 6.3696,-15.45 2.8936,-7.8879 8.6606,-23.5666 12.8156,-34.8416 4.1549,-11.275 11.6695,-31.75 16.699,-45.5 9.2956,-25.4125 12.5678,-34.2954 22.4579,-60.9649 3.0522,-8.2306 5.5495,-15.9563 5.5495,-17.1682 0,-5.0496 0.4103,-4.7297 -25.5,-19.8861 -8.25,-4.8259 -16.575,-9.7665 -18.5,-10.979 -1.925,-1.2125 -11.15,-6.6949 -20.5,-12.183 -9.35,-5.4881 -26.9,-15.844 -39,-23.0132 -12.1,-7.1691 -26.8303,-15.8407 -32.734,-19.27 -12.1682,-7.0683 -13.3639,-8.3028 -23.8991,-24.674 -4.1983,-6.5239 -12.2592,-19.0616 -17.9132,-27.8616 -5.654,-8.8 -13.0537,-20.275 -16.4437,-25.5 -3.39,-5.225 -8.9133,-13.775 -12.2741,-19 -35.5188,-55.22216 -37.8721,-58.73494 -40.1732,-59.96646 -1.1335,-0.60663 -11.3988,-3.75287 -22.8118,-6.99164 C 1022.965,881.16357 965.40141,864.89991 905,847.87343 885.475,842.36955 867.025,837.07295 864,836.1032 l -5.5,-1.76318 -0.30163,-7.42001 c -0.1659,-4.08101 0.86414,-61.5728 2.28897,-127.75954 1.42483,-66.18674 2.31618,-121.20417 1.98076,-122.26097 -0.33541,-1.05679 -1.96224,-2.62079 -3.61517,-3.47555 -2.67398,-1.38277 -3.25673,-1.38939 -5.28558,-0.06 -2.12828,1.39451 -9.33984,12.38758 -46.16921,70.37894 -20.9442,32.97864 -28.16321,44.30655 -50.5087,79.25715 -13.18649,20.625 -33.89643,53.025 -46.0221,72 -24.8474,38.88276 -29.76717,46.45823 -41.99189,64.6592 -4.7435,7.06244 -12.1014,18.6908 -16.35088,25.8408 -4.24949,7.15 -14.54344,23.68192 -22.87545,36.73761 -8.33202,13.05564 -16.72412,26.22091 -18.64912,29.2561 -7.9451,12.52724 -20.72489,32.51854 -25.5747,40.00625 -2.84989,4.4 -10.04599,15.65 -15.99133,25 -5.94534,9.35 -13.31267,20.924 -16.37184,25.7201 -3.05917,4.796 -9.37003,14.696 -14.02412,22 -4.65409,7.3039 -16.3969,25.6549 -26.09512,40.7799 -9.69822,15.125 -18.41612,29.0142 -19.37311,30.8649 -1.05442,2.0391 -2.10111,3.0038 -2.65656,2.4483 -0.55244,-0.5524 -0.8166,-117.6996 -0.6649,-294.86488 L 490.5,549.5 H 939 1387.5 v 448.9863 c 0,398.4214 -0.1689,448.9891 -1.5,449.0107 -0.825,0.013 -79.6673,-0.094 -175.2052,-0.2391 z M 946.84869,845.25 c 0.50548,-0.9625 1.19023,-3.55 1.52167,-5.75 1.70107,-11.29111 7.88629,-50.50636 9.62123,-61 1.09119,-6.6 3.56448,-22.0125 5.4962,-34.25 1.93171,-12.2375 5.10593,-32.2625 7.0538,-44.5 1.94787,-12.2375 4.90176,-30.8 6.56419,-41.25 1.66243,-10.45 3.89371,-24.24746 4.95841,-30.66102 2.51342,-15.14046 2.48066,-17.34394 -0.2867,-19.28228 -5.01333,-3.51147 -5.49456,-3.13966 -39.18401,30.27501 -17.65142,17.50743 -40.12741,39.70229 -49.94666,49.32189 l -17.85317,17.49019 -0.85164,43.4281 c -0.46839,23.88546 -0.87196,50.98857 -0.89682,60.22914 L 873,826.10205 l 3.42982,1.43307 c 6.05233,2.52883 63.5008,18.71062 68.785,19.37501 0.39315,0.0494 1.12839,-0.69763 1.63387,-1.66013 z m 1176.34421,424.7452 c -18.9345,-2.6613 -36.734,-11.4099 -50.5345,-24.8381 -12.0328,-11.7083 -19.6907,-24.8763 -24.8747,-42.7731 L 2045.5,1194.5 v -82.8126 -82.8125 l 23.2503,-0.1875 23.2503,-0.1874 0.01,75 c 0,46.7292 0.3961,77.3969 1.039,81.3587 3.0433,18.7553 17.4598,33.8972 35.4531,37.2371 21.5244,3.9954 42.8545,-9.3321 49.5359,-30.9511 1.8812,-6.087 1.9641,-9.6554 1.9644,-84.5 l 3e-4,-78.1447 h 23.9999 23.9999 l -0.01,77 c -0.01,83.8062 -0.2465,88.2558 -5.6363,104.5636 -3.0963,9.3685 -10.0994,21.577 -17.0315,29.6911 -11.0134,12.8913 -29.6249,24.2216 -46.3265,28.2026 -9.8669,2.3518 -26.7406,3.3122 -35.8071,2.0379 z m -617.3063,-1.9825 c -18.0471,-3.7612 -32.9493,-11.7791 -45.1927,-24.3153 -6.1365,-6.2832 -13.7588,-16.5935 -13.6524,-18.4668 0.023,-0.4018 6.6603,-5.3172 14.75,-10.9231 8.0897,-5.6059 16.356,-11.3869 18.3697,-12.8465 l 3.6612,-2.654 7.0782,7.4515 c 11.8459,12.4707 21.4192,16.2837 40.5994,16.1709 12.0395,-0.071 16.902,-1.0615 24.8278,-5.0581 10.6403,-5.3655 14.3808,-15.1446 9.5834,-25.0547 -4.4316,-9.1546 -15.7948,-17.0593 -49.4112,-34.3723 -24.1932,-12.46 -31.9711,-17.4335 -40.5709,-25.9427 -7.1198,-7.0447 -12.0297,-14.8012 -14.6737,-23.1808 -2.4237,-7.6814 -2.3319,-28.3405 0.1592,-35.8208 6.388,-19.1818 18.7153,-32.7034 37.7451,-41.4019 10.9753,-5.0168 18.794,-6.7184 33.644,-7.3219 19.9039,-0.809 32.9498,1.94 47.3048,9.9677 8.1282,4.5456 19.223,16.0345 23.5812,24.4189 2.9649,5.7039 3.0706,6.2389 1.5,7.5912 -3.4297,2.9528 -32.1293,22.7439 -32.896,22.6849 -0.4365,-0.034 -2.1481,-1.9266 -3.8034,-4.2066 -4.4339,-6.107 -10.7248,-10.4422 -18.6427,-12.8472 -18.913,-5.7446 -39.473,2.6524 -42.8189,17.4878 -2.105,9.3332 3.6836,16.0646 20.935,24.345 36.3622,17.4533 44.4039,21.6088 52.8037,27.2856 5.2364,3.539 12.6309,9.8166 17.0001,14.4324 12.7384,13.4572 17.7013,25.9516 17.7013,44.5641 0,19 -5.7427,33.3647 -18.3602,45.9255 -11.7968,11.7439 -24.753,18.3467 -43.2932,22.0635 -13.107,2.6275 -35.3822,2.6386 -47.9288,0.024 z M 1919,1268.8894 c -39.6029,-6.3134 -74.3046,-31.7814 -92.5034,-67.8894 -14.6691,-29.1049 -16.6296,-65.1703 -5.1912,-95.5 8.4908,-22.5141 25.7636,-45.0236 44.9383,-58.5627 40.2821,-28.4427 91.1842,-30.4293 130.1884,-5.081 9.0036,5.8514 22.5665,16.9756 22.5674,18.5097 3e-4,0.4763 -4.3461,6.7763 -9.6585,14 -14.4024,19.5838 -16.7135,22.634 -17.1496,22.634 -0.2186,0 -2.6439,-2.0197 -5.3895,-4.4882 -18.776,-16.8813 -44.1395,-24.07 -65.8136,-18.6534 -27.5839,6.8936 -49.4109,28.0403 -56.9231,55.1489 -2.8566,10.3084 -2.8566,26.677 0,36.9854 6.0236,21.7368 24.8287,43.0168 45.1811,51.1271 11.4735,4.5722 15.0094,5.2495 27.2537,5.221 10.2929,-0.024 13.0396,-0.3945 19.3078,-2.6046 10.1589,-3.5819 20.735,-9.8609 29.2893,-17.3888 3.9934,-3.5143 7.5607,-6.0426 7.9273,-5.6185 4.6788,5.4129 25.9779,36.8228 25.6135,37.7725 -0.2698,0.703 -3.7627,4.0944 -7.7619,7.5365 -16.8748,14.5236 -34.0238,22.9105 -54.1111,26.4634 -8.97,1.5866 -28.9585,1.792 -37.7649,0.3881 z M 1645.7622,1148.25 c -0.1442,-64.7625 -0.1447,-118.2 0,-118.75 0.1709,-0.6548 24.7647,-1 71.25,-1 H 1788 v 23.2403 23.2403 l -47.4648,0.2597 -47.4649,0.2597 -0.2851,23.2501 -0.2852,23.2502 40.75,-2e-4 c 22.4125,0 40.7561,0.3374 40.7635,0.7499 0.01,0.4125 0.041,10.875 0.075,23.25 l 0.062,22.5 -40.4961,0.2612 -40.4961,0.2611 -0.3521,24.2389 c -0.1937,13.3313 -0.2028,24.5763 -0.02,24.9888 0.1826,0.4125 21.6804,0.75 47.7729,0.75 H 1788 v 23.5 23.5 h -70.9878 -70.9878 z m 622.2241,2.0184 c -0.01,-63.6726 -0.2383,-116.6684 -0.513,-117.7684 -0.2746,-1.1 -0.156,-2.45 0.2637,-3 0.5008,-0.6564 16.7426,-0.7979 47.263,-0.412 44.848,0.5671 46.7487,0.6689 53.5,2.8674 27.0403,8.8051 44.9515,26.3752 53.6649,52.6427 1.9618,5.914 2.2826,8.9057 2.2417,20.9019 -0.042,12.2498 -0.3662,14.9584 -2.5945,21.6667 -6.3495,19.1142 -19.6324,34.5937 -36.1578,42.1368 -2.3179,1.058 -3.6488,2.2685 -3.35,3.047 0.2726,0.7104 15.1656,21.82 33.0956,46.9102 17.9301,25.0902 32.6001,45.8707 32.6001,46.1789 0,0.3082 -12.8001,0.5604 -28.4448,0.5604 h -28.4447 l -16.3891,-24.25 c -9.0139,-13.3375 -26.0263,-38.5413 -37.8052,-56.0085 l -21.4162,-31.7585 -0.5,55.7585 -0.5,55.7585 -23.25,0.2684 -23.25,0.2685 z m 86.298,-15.7417 c 13.1453,-3.9886 21.7257,-15.5489 21.7059,-29.2446 -0.012,-8.6304 -2.9238,-15.163 -9.413,-21.1212 -8.2607,-7.5847 -11.3797,-8.4363 -32.8272,-8.9628 -15.5064,-0.3807 -18.7492,-0.2214 -18.7457,0.9208 0,0.7596 -0.029,13.9811 -0.069,29.3811 -0.04,15.4 -0.042,28.5625 0,29.25 0.1048,1.8987 32.9743,1.7122 39.3533,-0.2233 z m 117.9616,12.9341 0.2541,-118.5392 23.7504,-0.2108 23.7504,-0.2108 -4e-4,118.75 L 2520,1266 h -24.0041 -24.0041 z m 133.5091,23.2892 -0.255,-95.25 -29.2684,-0.2651 -29.2684,-0.2652 0.2684,-23.0042 0.2684,-23.0042 81.5,-0.016 81.5,-0.016 0.2684,23.0356 c 0.2106,18.0721 0,23.0405 -1,23.0582 -0.6976,0.013 -13.6434,0.125 -28.7684,0.25 l -27.5,0.2274 -0.255,95.25 -0.2551,95.25 H 2629.5 2606.0101 Z M 2794,1214.5721 v -51.4279 l -18.6216,-34.3221 c -46.2969,-85.3317 -53.3147,-98.3705 -53.3456,-99.1141 -0.024,-0.5801 39.9818,-1.1606 51.6378,-0.7493 0.6439,0.023 3.8771,5.3288 7.185,11.7913 14.4619,28.2533 36.102,68.7359 36.882,68.9959 0.8524,0.2841 5.5259,-8.2978 30.2219,-55.4959 7.2665,-13.8875 13.7357,-25.2474 14.3761,-25.2441 0.6404,0 12.5272,-0.1093 26.415,-0.25 14.5364,-0.1473 25.2504,0.127 25.25,0.6465 -6e-4,0.8292 -7.3419,14.4496 -56.1663,104.2054 l -16.9217,31.1078 0.2937,50.6426 0.2937,50.6426 -23.75,-4e-4 L 2794,1266 Z M 2436.1929,959.99517 c -38.7091,-5.44057 -69.2165,-34.8966 -76.6328,-73.99169 -1.3316,-7.01971 -1.5601,-19.88997 -1.5602,-87.86395 V 718.5 l 23.25,0.20268 c 12.7876,0.11148 23.4751,0.22402 23.7501,0.2501 0.275,0.0261 0.5,35.03487 0.5,77.79732 0,63.38971 0.2572,78.67339 1.3927,82.7499 4.8973,17.58153 18.63,30.06649 36.0346,32.76046 20.2027,3.12709 39.6222,-8.77727 47.7857,-29.29323 1.6354,-4.10993 1.8179,-10.85338 2.2823,-84.31218 l 0.5047,-79.84494 23.2938,-0.15506 c 22.8742,-0.15226 23.3032,-0.11732 23.8194,1.93976 0.2892,1.15215 0.3478,38.05215 0.1304,82 -0.3864,78.11173 -0.444,80.09134 -2.5648,88.19908 -9.2338,35.30024 -33.7284,59.60682 -68.1788,67.6553 -8.1891,1.91318 -25.547,2.70694 -33.8071,1.54598 z m -799.699,-10.76619 C 1544.6233,859.67158 1507.6415,824 1506.6651,824 1506.2993,824 1506,853.7 1506,890 v 66 H 1482.5 1459 V 835 c 0,-66.55 0.3375,-120.98801 0.75,-120.97336 0.7323,0.026 23.1048,21.53133 102.1844,98.22336 21.4089,20.7625 39.1818,37.75 39.4954,37.75 0.3136,0 0.5702,-29.7 0.5702,-66 v -66 h 24 24 v 121 c 0,96.14454 -0.2568,120.99568 -1.25,120.97898 -0.6875,-0.0116 -6.2027,-4.84906 -12.2561,-10.75 z m 149.0061,9.6363 c -27.0824,-4.93458 -47.6268,-15.28053 -66.5312,-33.50444 -26.2079,-25.26448 -39.8127,-59.93448 -37.4205,-95.36084 4.4369,-65.7067 57.6421,-115.89466 122.9517,-115.97935 55.9295,-0.0725 105.2498,38.35378 119.3393,92.97935 3.5033,13.5823 4.6959,28.67161 3.2837,41.54568 -2.7393,24.97325 -10.5343,44.36657 -25.7515,64.06774 -18.687,24.19356 -46.0144,40.48329 -76.8715,45.82282 -9.7947,1.69488 -30.7854,1.9258 -39,0.42904 z m 35.5,-48.28565 c 14.3483,-3.51955 25.2256,-9.48664 35.3382,-19.38577 12.1319,-11.8759 18.8845,-23.98135 22.1231,-39.66022 6.8347,-33.0888 -11.0217,-68.22952 -41.9613,-82.57844 -12.3757,-5.7395 -20.1664,-7.23117 -35.2231,-6.74415 -10.7602,0.34804 -14.103,0.86633 -21.1781,3.28358 -23.1254,7.90087 -40.6324,26.23628 -48.2477,50.53059 -1.991,6.35152 -2.3425,9.57861 -2.3396,21.47478 0,15.29566 1.3371,21.13251 7.766,34 9.304,18.62163 27.4847,33.15255 48.178,38.50612 8.6368,2.23445 27.5305,2.5393 35.5445,0.57351 z m 231.0247,47.84116 c -55.1515,-10.0548 -96.928,-55.14338 -102.0836,-110.17697 -5.113,-54.57906 28.2897,-107.02477 80.7456,-126.77917 33.8507,-12.74787 71.2309,-8.87793 101.322,10.48977 7.188,4.62648 16.7841,12.08859 20.2191,15.7227 l 2.7278,2.88592 -12.0769,16.46848 c -16.5297,22.54045 -14.1652,20.71961 -20.2556,15.59861 -27.636,-23.23746 -58.8151,-26.96778 -87.1231,-10.42355 -4.2262,2.46996 -10.6278,7.73409 -16.1554,13.2848 -7.9878,8.02135 -9.7987,10.52092 -14.2007,19.60118 -6.5206,13.45038 -8.661,23.60483 -7.7869,36.94301 1.4384,21.94785 12.3789,41.57579 30.9594,55.54305 7.7263,5.80797 15.1384,9.57402 24.7188,12.55963 10.2463,3.19309 27.4554,3.22588 36.7702,0.0701 12.3612,-4.18796 20.7711,-9.11308 31.3208,-18.34252 7.8048,-6.82811 5.5655,-8.17063 19.4054,11.6342 5.3808,7.7 10.8375,15.27203 12.1259,16.82673 1.2884,1.55469 2.3425,3.16786 2.3425,3.58481 0,1.04932 -14.8539,13.63536 -20.8884,17.69926 -11.8895,8.00685 -26.8536,14.07431 -41.6116,16.87219 -9.794,1.85679 -30.1208,1.82555 -40.4753,-0.0622 z m 890.8811,-28.20985 C 2926.079,913.86992 2894.6209,883.2875 2872.9989,862.25 2851.3769,841.2125 2833.3068,824 2832.8431,824 2832.3794,824 2832,853.7 2832,890 v 66 H 2808.5 2785 V 835 c 0,-66.55 0.3375,-120.99103 0.75,-120.98006 0.7287,0.0194 21.5224,20.00883 102.1826,98.23006 21.4099,20.7625 39.1836,37.75 39.4972,37.75 0.3136,0 0.5702,-29.7 0.5702,-66 v -66 h 24 24 v 121 c 0,96.15417 -0.2567,120.99198 -1.25,120.96094 -0.6875,-0.0215 -15.0174,-13.40898 -31.8442,-29.75 z M 2225.755,860.75 2225.5,765.5 h -28.7506 -28.7507 l 7e-4,-23.5 6e-4,-23.5 h 82.0175 82.0175 l -0.2675,23.29581 -0.2675,23.29582 -28.5,0.20418 -28.5,0.20419 -0.255,95.25 -0.2551,95.25 H 2250 2226.0101 Z M 2580,837.55902 c 0,-65.14254 0.3375,-118.58074 0.75,-118.75154 0.4125,-0.17081 21.675,-0.0453 47.25,0.27896 44.7327,0.56712 46.766,0.67559 53.5,2.85402 15.5139,5.01877 30.4107,14.94676 39.8922,26.58636 6.1625,7.56507 13.2588,22.26067 15.1087,31.28856 6.6738,32.56781 -9.5073,66.55241 -37.8466,79.48813 -2.6535,1.21123 -3.6678,2.21905 -3.2717,3.25108 0.3156,0.82263 8.3462,12.31924 17.8457,25.54803 9.4994,13.22878 17.9347,25.02997 18.7451,26.22485 0.8104,1.19489 3.9604,5.59742 7,9.78339 3.0396,4.18597 8.0016,11.11947 11.0266,15.40778 3.025,4.28831 6.9647,9.75773 8.7549,12.15426 l 3.255,4.35732 -29.145,-0.26511 -29.145,-0.26511 -37.61,-55.81465 L 2628.5,843.8707 2628.2417,899.93535 2627.9833,956 H 2603.9917 2580 Z m 88.4948,-13.64296 c 8.4969,-3.17909 13.5098,-7.53459 17.3682,-15.0905 6.1043,-11.954 4.1027,-24.17526 -5.5729,-34.02569 -2.7765,-2.82667 -6.8435,-5.61477 -10.2034,-6.99477 -5.113,-2.10009 -7.1129,-2.29509 -23.5867,-2.29987 l -18,-0.005 -0.2647,30.25 -0.2646,30.25 h 17.4771 c 15.2633,0 18.1827,-0.26397 23.047,-2.08394 z M 3017.7622,838.25 c -0.1442,-64.7625 -0.1447,-118.2 0,-118.75 0.171,-0.65482 24.7649,-1 71.2501,-1 h 70.9889 v 23.2403 l -1e-4,23.24031 -47.4648,0.25969 -47.4649,0.2597 -0.2851,23.25013 -0.2852,23.25013 40.75,-1.3e-4 c 22.4125,-7e-5 40.7561,0.33737 40.7635,0.74987 0.01,0.4125 0.041,10.875 0.075,23.25 l 0.062,22.5 -40.4961,0.26115 -40.4961,0.26115 -0.3521,24.23885 c -0.1937,13.33137 -0.2028,24.57635 -0.02,24.98885 0.1826,0.4125 21.6804,0.75 47.7729,0.75 H 3160 v 23.5 23.5 h -70.9878 -70.9878 z"
         id="path23" />
      <path
         style="fill:#fffaf3"
         d="m 1037.5661,1445.75 c -0.2042,-0.6875 -0.8731,-5.75 -1.4866,-11.25 -0.6135,-5.5 -2.2187,-19.225 -3.5672,-30.5 -6.3682,-53.2483 -8.6651,-72.4181 -10.0044,-83.5 -0.7977,-6.6 -2.8095,-23.25 -4.4707,-37 -1.6612,-13.75 -3.5179,-28.9687 -4.1261,-33.8193 -0.6082,-4.8506 -0.8514,-9.0737 -0.5405,-9.3846 0.3109,-0.3109 1.8172,-0.069 3.3473,0.5387 1.5302,0.6073 14.9321,4.4653 29.7821,8.5735 29.1041,8.0515 46.0688,13.0664 59.5,17.5886 56.1778,18.9146 144.5089,47.402 148.1055,47.765 6.0181,0.6074 7.6102,-1.1044 11.642,-12.517 1.6991,-4.8097 15.7261,-43.1138 31.1709,-85.1202 15.4449,-42.0064 28.0816,-77.4644 28.0816,-78.7955 0,-4.1189 -3.1561,-6.4614 -29,-21.5237 -5.225,-3.0453 -19.4,-11.3868 -31.5,-18.5367 -50.8242,-30.0322 -66.5228,-39.2932 -75.7882,-44.709 -5.3835,-3.1468 -10.8774,-6.6975 -12.2087,-7.8906 -1.3313,-1.1931 -6.9074,-9.1442 -12.3913,-17.6692 -74.48,-115.78225 -83.555,-129.59646 -86.2677,-131.31944 -1.2892,-0.8189 -15.3941,-5.16325 -31.3441,-9.6541 -15.95,-4.49086 -39.2375,-11.05898 -51.75,-14.59583 -46.55642,-13.15988 -69.94473,-19.77041 -95.75,-27.06302 -14.575,-4.11892 -29.54698,-8.38352 -33.27106,-9.47689 l -6.77105,-1.98795 0.39672,-42.20139 c 0.2182,-23.21076 1.09602,-66.95138 1.95072,-97.20138 0.8547,-30.25 1.58565,-69.48186 1.62433,-87.18191 l 0.0703,-32.1819 -2.90437,-2.0681 C 858.49823,571.93064 856.50829,571 855.67355,571 c -2.11399,0 -7.14467,6.15613 -14.01571,17.15128 -3.21319,5.1418 -9.06319,14.38945 -13,20.55035 C 824.72103,614.86252 815.2,629.84679 807.5,642 c -7.7,12.15321 -17.15,27.03229 -21,33.06462 -3.85,6.03232 -12.23356,19.17306 -18.63014,29.20162 C 761.47328,714.29481 748.91295,733.975 739.958,748 c -8.95494,14.025 -25.03345,39.225 -35.73001,56 -19.59399,30.7285 -24.20785,37.76893 -35.92894,54.82499 -3.52452,5.12875 -10.48484,16.15375 -15.46739,24.5 -8.55767,14.33494 -17.75629,28.92397 -55.13152,87.43871 -8.68993,13.60497 -23.69112,37.1113 -33.33599,52.2363 -9.64486,15.125 -24.44317,38.3 -32.88512,51.5 -8.44195,13.2 -20.8404,32.6625 -27.5521,43.25 -6.7117,10.5875 -12.36595,19.25 -12.56501,19.25 C 491.16286,1137 491,1004.9245 491,843.49889 v -293.5011 l 448.25,0.2511 448.25,0.25111 0.2511,448.25 0.2511,448.25 h -175.0325 c -139.1614,0 -175.1085,-0.2562 -175.4036,-1.25 z m -89.19462,-601 c 0.22527,-1.2375 1.82686,-11.475 3.55908,-22.75 1.73222,-11.275 4.05067,-25.9 5.15212,-32.5 1.10145,-6.6 4.69716,-29.1 7.99046,-50 9.64262,-61.19406 16.26219,-102.71012 19.01753,-119.27249 0.9092,-5.46522 0.92767,-7.89184 0.0743,-9.76473 -1.3907,-3.05227 -5.20251,-4.92116 -8.40026,-4.11858 -1.33017,0.33385 -24.33748,22.36695 -52.08226,49.87692 L 873.98296,705.5 l -0.0238,7 c -0.0131,3.85 -0.43732,30.85 -0.94279,60 -0.71018,40.95537 -0.64603,53.25696 0.28228,54.13069 2.84763,2.6802 64.2334,20.11772 71.43227,20.29137 2.59321,0.0626 3.31179,-0.36617 3.64053,-2.17206 z M 2127,1269.9491 c -42.792,-3.8171 -76.4594,-37.1983 -81.0028,-80.3143 -0.5294,-5.0241 -0.9703,-43.2223 -0.9799,-84.8848 L 2045,1029 h 23.5 23.5 v 76.4508 c 0,52.3707 0.3511,78.1199 1.1146,81.75 3.3819,16.0791 16.5468,30.3922 31.548,34.2995 22.8339,5.9475 45.61,-6.5403 53.4408,-29.3007 1.7995,-5.2305 1.8966,-9.5492 1.8966,-84.3562 V 1029 h 24 24 l -0.019,75.25 c -0.021,81.9823 -0.3928,88.9902 -5.5436,104.5751 -3.2703,9.8948 -9.3963,20.9042 -16.5116,29.6739 -17.7135,21.8323 -48.6312,34.1523 -78.9253,31.4501 z m -616,-1.1123 c -30.5928,-6.275 -49.6131,-19.0433 -63.346,-42.5239 -0.4419,-0.7556 2.8566,-3.6495 9.0759,-7.9624 5.3735,-3.7264 13.7367,-9.6284 18.5848,-13.1156 l 8.8147,-6.3402 2.1228,2.8027 c 6.6992,8.8446 16.618,16.185 25.6527,18.9844 7.9204,2.4541 30.6204,2.4687 37.4229,0.024 7.7331,-2.7791 10.1894,-4.3505 14.5577,-9.3132 3.7341,-4.2421 4.1145,-5.1734 4.1145,-10.0733 0,-13.9868 -10.0682,-22.4199 -53.5,-44.8116 -10.45,-5.3877 -22.1487,-11.8684 -25.9971,-14.4017 -13.5181,-8.8987 -23.1754,-21.0682 -27.1666,-34.2335 -2.0247,-6.6783 -2.2469,-24.1732 -0.405,-31.8726 7.4133,-30.9876 38.3809,-51.9992 76.6392,-51.9998 23.3959,-4e-4 43.5959,7.7688 56.5285,21.7417 4.8205,5.2083 11.901,16.4986 11.901,18.9769 0,0.5164 -6.9575,5.7555 -15.461,11.6425 -8.5036,5.8869 -15.7301,11.139 -16.059,11.6711 -1.0665,1.7256 -2.2528,1.0412 -5.2428,-3.0246 -4.3804,-5.9564 -10.9665,-10.7313 -18.0875,-13.1133 -9.1633,-3.0653 -22.4667,-2.4419 -30.3662,1.423 -10.0742,4.9288 -15.8961,13.9382 -14.3461,22.2004 1.0388,5.5376 8.3885,12.3389 18.6222,17.2329 56.1674,26.8603 66.2106,33.1477 77.9078,48.7723 7.051,9.4185 10.0238,16.8464 12.1153,30.2718 1.8645,11.9685 -0.6421,26.472 -6.6156,38.2785 -13.0277,25.7486 -41.9641,40.1522 -79.9671,39.8051 -7.15,-0.065 -15.025,-0.534 -17.5,-1.0417 z m 407.5,-0.3147 c -37.5542,-6.5779 -69.0318,-28.2528 -88.0557,-60.6332 -20.6028,-35.0681 -21.9023,-78.3237 -3.4513,-114.8751 6.7809,-13.4328 14.0857,-23.01 26.706,-35.0138 27.8546,-26.4938 66.1072,-38.5663 101.801,-32.1285 20.201,3.6435 42.8907,15.2483 59.3376,30.3487 l 4.3376,3.9825 -2.3376,3.2348 c -1.2857,1.7792 -7.2504,10.0002 -13.255,18.2688 l -10.9174,15.0339 -8.0826,-6.4356 c -9.3205,-7.4213 -23.203,-14.5598 -32.5826,-16.7543 -8.007,-1.8733 -23.6258,-1.9388 -31,-0.1299 -20.5046,5.0297 -39.8765,19.729 -50.0639,37.9886 -6.6502,11.9193 -9.155,21.8009 -9.1239,35.9939 0.031,14.1996 1.4697,20.68 7.1255,32.0971 9.284,18.7414 26.9544,33.8389 47.5623,40.6371 5.7156,1.8855 9.2018,2.3142 19,2.3361 13.7348,0.031 18.4054,-1.0138 30,-6.7088 8.7591,-4.3022 11.908,-6.4605 21.1816,-14.5177 5.6347,-4.8957 6.2699,-5.2058 7.1797,-3.5059 0.5489,1.0257 6.2708,9.2661 12.7154,18.312 6.4445,9.046 11.7636,17.0834 11.8203,17.8609 0.057,0.7775 -3.047,4.0881 -6.897,7.3569 -17.8778,15.1787 -35.5714,23.6021 -58.0602,27.641 -7.7584,1.3934 -25.9168,1.1909 -34.9398,-0.3895 z M 1646,1147.5 V 1029 h 71.0188 71.0187 l -0.2687,22.75 -0.2688,22.75 -47.75,0.2597 -47.75,0.2597 V 1098.5097 1122 h 41 41 v 23.5 23.5 h -41.0175 -41.0174 l 0.2674,24.75 0.2675,24.75 47.75,0.2597 47.75,0.2597 V 1242.5097 1266 h -71 -71 z m 622,-0.052 v -118.5893 l 46.25,0.3632 46.25,0.3631 9.0371,3.1087 c 27.7056,9.5303 45.1597,27.2643 52.9579,53.8067 2.2965,7.8167 2.4299,28.541 0.2348,36.5 -5.9724,21.6553 -19.3529,38.1952 -37.3336,46.1489 -2.9061,1.2855 -4.1898,2.3783 -3.7104,3.1583 1.4582,2.3727 58.6386,82.3219 62.4272,87.2852 2.1378,2.8008 3.887,5.3883 3.887,5.75 0,0.3617 -12.7413,0.6576 -28.314,0.6576 h -28.3139 l -22.4243,-33.25 c -12.3333,-18.2875 -29.2178,-43.3503 -37.5211,-55.695 -8.3032,-12.3448 -15.6283,-22.6222 -16.2778,-22.8387 -0.8991,-0.2997 -1.1693,12.938 -1.1315,55.445 l 0.049,55.8387 -23.0334,0.2684 -23.0335,0.2685 z m 88.3596,-13.4809 c 7.0392,-2.6337 13.8082,-8.6558 17.0565,-15.1742 2.1157,-4.2457 2.5839,-6.601 2.5839,-12.9997 0,-12.5163 -5.0121,-20.832 -16.175,-26.8363 l -6.325,-3.402 -19.5,-0.027 -19.5,-0.027 -0.2647,30.25 -0.2646,30.25 h 18.4771 c 16.1297,0 19.1676,-0.2583 23.9118,-2.0333 z m 115.8863,13.7833 0.2541,-118.25 23.75,-0.2681 23.75,-0.2681 V 1147.4819 1266 h -24.0041 -24.0041 z m 133.5092,23.0184 -0.2551,-95.2684 -29,-0.5 -29,-0.5 -0.2688,-22.75 -0.2687,-22.75 H 2628.9812 2711 v 22.9849 22.9849 l -29.25,0.2651 -29.25,0.2651 -0.2475,95 -0.2475,95 -22.9974,0.2684 -22.9975,0.2684 z m 188.8315,44.4816 0.2721,-50.75 -8.2929,-15.5 c -8.1517,-15.2361 -57.5441,-106.3991 -62.1911,-114.7855 -1.3061,-2.357 -2.3747,-4.4945 -2.3747,-4.75 0,-0.2555 11.6449,-0.4645 25.8776,-0.4645 19.5065,0 26.1216,0.3077 26.8691,1.25 0.5453,0.6875 10.343,19.1664 21.7725,41.0642 16.8546,32.2916 21.0181,39.5658 22.0359,38.5 0.6902,-0.7228 10.3381,-18.6392 21.4399,-39.8142 11.1017,-21.175 20.6496,-39.0625 21.2174,-39.75 0.7774,-0.9412 7.4253,-1.25 26.91,-1.25 14.2327,0 25.8776,0.1702 25.8776,0.3783 0,0.2081 -1.9548,3.9206 -4.344,8.25 -2.3892,4.3294 -18.8142,34.5092 -36.5,67.0661 L 2841,1163.8888 V 1214.9444 1266 h -23.3428 -23.3428 z M 2439.5,959.90068 c -18.2141,-1.66625 -34.7197,-8.60721 -48.9844,-20.59895 -16.2307,-13.64461 -26.145,-30.73997 -30.5393,-52.65979 -1.8684,-9.31979 -1.9763,-14.16575 -1.9763,-88.75 V 719 h 23.4453 23.4453 l 0.3477,79.75 c 0.3377,77.44621 0.4065,79.89444 2.3804,84.75 4.719,11.60825 13.0733,20.59782 23.8813,25.69725 6.6175,3.12227 7.6011,3.30103 18,3.27126 10.3122,-0.0295 11.4152,-0.23264 17.6398,-3.24848 7.3566,-3.56428 16.1918,-11.69741 20.2737,-18.66262 6.1069,-10.42065 5.9934,-8.73918 6.3166,-93.55741 l 0.2954,-77.5 23.0149,-0.2685 23.0148,-0.2685 -0.2876,83.2685 c -0.2851,82.5259 -0.3075,83.33984 -2.5091,91.2685 -5.0639,18.23739 -17.7283,37.40812 -31.6179,47.86175 -18.8167,14.16186 -42.2348,20.72585 -66.1406,18.53893 z M 1613,926.29097 c -18.975,-18.4782 -50.4102,-49.16542 -69.8559,-68.19384 -19.4458,-19.02842 -35.7583,-34.74713 -36.25,-34.93046 -0.5198,-0.1938 -0.8941,27.53823 -0.8941,66.25 V 956 H 1482.5 1459 V 835 c 0,-66.55 0.2719,-121 0.6041,-121 0.7468,0 40.3905,38.09617 73.8959,71.01128 25.7977,25.34319 67.8086,65.95462 68.25,65.97639 0.1375,0.007 0.25,-29.92081 0.25,-66.50577 v -66.5181 l 23.5087,0.2681 23.5086,0.2681 -5e-4,120.49728 c -2e-4,66.2735 -0.3416,120.58573 -0.7586,120.69384 -0.417,0.1081 -16.2832,-14.92196 -35.2582,-33.40015 z m 172.5,32.21496 c -22.6397,-4.01783 -38.3208,-10.83423 -56.5,-24.55998 -20.453,-15.44252 -36.7329,-39.949 -43.4764,-65.44595 -4.5141,-17.06762 -5.1093,-39.26883 -1.5012,-56 11.1755,-51.82292 52.0585,-89.7748 105.0455,-97.51417 8.8755,-1.29638 26.9599,-0.8583 36.4321,0.88253 14.0908,2.58964 28.5939,8.00509 40.8738,15.26223 10.1968,6.02609 14.9738,9.78493 24.871,19.57 26.3336,26.0351 39.9039,64.29321 35.3992,99.79941 -2.747,21.65297 -9.0294,38.4629 -20.7943,55.64014 -23.1158,33.74996 -61.901,54.10489 -102.3497,53.71429 -6.05,-0.0584 -14.15,-0.66525 -18,-1.3485 z m 35.5,-47.73122 c 21.9737,-4.6234 42.1602,-20.93311 52.0392,-42.04515 16.4014,-35.05085 2.9558,-77.28223 -31.0392,-97.49105 -10.9702,-6.52139 -22.7451,-9.44946 -38,-9.44946 -15.062,0 -20.9206,1.36529 -34,7.92335 -7.8845,3.95336 -11.0304,6.29585 -18.5,13.77548 -13.9706,13.98939 -20.0227,26.46574 -22.4135,46.20488 -1.6088,13.28213 1.1244,28.84491 7.1667,40.80724 7.1107,14.07749 20.2157,27.11735 34.6085,34.43653 13.8949,7.06602 33.4698,9.34534 50.1383,5.83818 z m 235,48.11478 c -18.1498,-3.61512 -30.0225,-7.52784 -40.8686,-13.46852 -33.3624,-18.27329 -56.5018,-49.5672 -63.6761,-86.11622 -1.8354,-9.34976 -2.1185,-34.57116 -0.4694,-41.81107 0.6256,-2.74652 1.6079,-7.01868 2.1827,-9.49368 4.5512,-19.59364 16.706,-40.87551 32.3112,-56.57382 14.1676,-14.2522 31.0468,-24.93452 48.7257,-30.83698 6.8737,-2.29494 9.5771,-2.95653 22.6208,-5.53592 2.9294,-0.57931 9.4544,-1.04499 14.5,-1.03485 28.1359,0.0565 57.8806,12.27328 79.8311,32.7884 l 3.6574,3.41823 -12.9365,17.63747 c -7.1151,9.70061 -13.374,17.78767 -13.9088,17.97126 -0.5347,0.18358 -3.0892,-1.52968 -5.6767,-3.80725 -7.3483,-6.4682 -18.5939,-13.01782 -28.0989,-16.36521 -11.993,-4.22358 -28.0562,-4.91782 -39.7239,-1.71683 -25.4521,6.9827 -46.0586,26.80753 -54.6276,52.5555 -1.9952,5.99522 -2.3296,9.00957 -2.3296,21 0,11.9535 0.3385,15.02325 2.3154,21 7.986,24.14372 27.6593,43.85037 51.1718,51.25866 7.342,2.3133 10.203,2.67624 21,2.66408 13.6149,-0.0153 18.6944,-1.21089 30.531,-7.18601 6.6599,-3.36186 16.4205,-10.43496 20.9061,-15.14963 1.6154,-1.6979 3.463,-3.0871 4.1058,-3.0871 1.1903,0 26.4571,35.2301 26.4571,36.88985 0,0.50021 -2.5762,3.26398 -5.7249,6.14171 -21.6184,19.75798 -48.1568,30.0736 -76.7751,29.84292 -6.05,-0.0488 -13.025,-0.49201 -15.5,-0.98499 z m 883,-32.59852 c -18.975,-18.4782 -50.4102,-49.16542 -69.8559,-68.19384 -19.4458,-19.02842 -35.7583,-34.74713 -36.25,-34.93046 -0.5198,-0.1938 -0.8941,27.53823 -0.8941,66.25 V 956 H 2808.5 2785 V 835 c 0,-66.55 0.2719,-121 0.6041,-121 0.7468,0 40.3905,38.09617 73.8959,71.01128 25.7977,25.34319 67.8086,65.95462 68.25,65.97639 0.1375,0.007 0.25,-29.92081 0.25,-66.50577 v -66.5181 l 23.5087,0.2681 23.5086,0.2681 -5e-4,120.49728 c -2e-4,66.2735 -0.3416,120.58573 -0.7586,120.69384 -0.417,0.1081 -16.2832,-14.92196 -35.2582,-33.40015 z M 2226.755,860.75 2226.5,765.5 2197.25,765.2349 2168,764.96979 V 741.9849 719 h 82 82 v 23 23 h -29 -29 v 95.5 95.5 h -23.495 -23.4949 z m 354.0976,14 c -0.081,-44.6875 -0.1935,-97.9 -0.25,-118.25 l -0.1026,-37 45.5,0.003 c 41.1445,0.002 46.122,0.17865 51.9976,1.84155 31.3337,8.86791 52.37,30.52817 58.5843,60.32184 6.3006,30.2074 -10.2735,64.61443 -37.018,76.84762 -3.0601,1.39975 -5.5639,2.71195 -5.5639,2.916 0,0.45054 54.1086,76.15544 61.6425,86.24584 2.9466,3.9465 5.3575,7.434 5.3575,7.75 0,0.316 -12.7448,0.57454 -28.3218,0.57454 h -28.3217 l -17.0134,-25.25 c -9.3573,-13.8875 -26.425,-39.2 -37.9282,-56.25 l -20.9149,-31 -0.2583,56.25 -0.2584,56.25 H 2604.4917 2581 Z m 88.507,-50.78335 c 10.3128,-3.8585 18.5646,-13.91358 20.2264,-24.64645 0.6697,-4.32564 -0.8794,-12.88995 -3.1417,-17.36872 -2.179,-4.31387 -9.1104,-10.74636 -14.6599,-13.60481 -5.0997,-2.62669 -5.9573,-2.73691 -24.5344,-3.15278 L 2628,764.76295 V 795.38147 826 h 17.9625 c 15.6122,0 18.6736,-0.26605 23.3971,-2.03335 z M 3018,837.5 V 719 h 71.0188 71.0187 l -0.2687,22.75 -0.2688,22.75 -47.75,0.2597 -47.75,0.25969 V 788.5097 812 h 41 41 v 23.5 23.5 h -41.0175 -41.0174 l 0.2674,24.75 0.2675,24.75 47.75,0.2597 47.75,0.25969 V 932.5097 956 h -71 -71 z"
         id="path22" />
    </g>
  </g>
</svg>
